<svg width="63" height="20" viewBox="0 0 63 20" fill="none" xmlns="http://www.w3.org/2000/svg">
<g clip-path="url(#clip0_666_163)">
<path d="M9.28283 15.1805C9.28283 14.3833 9.29137 12.2527 9.27197 11.9902C9.28888 8.8197 7.01316 6.58323 5.57546 6.75757C4.58063 6.84503 3.74688 7.25593 3.29921 8.43801C2.88429 9.53966 3.25524 11.005 4.63474 11.3488C6.10982 11.7181 6.97116 12.0253 7.59451 12.4588C8.3583 12.9894 8.98184 14.0033 8.99839 15.1817" fill="#0060AF"/>
<path d="M9.87166 20C7.27074 20 4.59772 19.3511 1.92827 18.0677L1.86276 18.0351L1.83144 17.9674C0.6335 15.406 0 12.6045 0 9.86352C0 7.12668 0.607512 4.44502 1.80634 1.88706L1.83927 1.81908L1.90602 1.78519C4.3754 0.600231 7.03186 0 9.80402 0C12.3864 0 15.1444 0.668205 17.7784 1.93574L17.846 1.96621L17.8772 2.03545C19.0981 4.64408 19.7419 7.44492 19.7419 10.1405C19.7419 12.8255 19.1237 15.5095 17.9014 18.1165L17.8692 18.1851L17.8012 18.2168C15.3695 19.3828 12.6273 20 9.87166 20ZM2.17533 17.7165C4.7686 18.9521 7.35493 19.5761 9.87166 19.5761C12.5402 19.5761 15.1942 18.9853 17.5566 17.8652C18.7302 15.339 19.325 12.739 19.325 10.1405C19.325 7.53146 18.7042 4.81754 17.5297 2.28571C14.9735 1.06848 12.3038 0.422992 9.80402 0.422992C7.12015 0.422992 4.5477 0.999603 2.1529 2.13714C1.00338 4.61649 0.418299 7.21449 0.418299 9.86352C0.418299 12.5176 1.02634 15.2326 2.17533 17.7165Z" fill="#0060AF"/>
<path d="M8.66637 15.1821C8.67118 14.1604 8.10817 13.2569 7.37232 12.7713C6.7196 12.3422 5.84331 12.0602 4.42963 11.6971C3.99265 11.5838 3.53554 11.3323 3.39403 11.0117C3.0197 11.3938 2.95171 12.2527 3.01756 12.7547C3.09411 13.3356 3.76427 14.2931 4.77335 14.3306C5.38958 14.3556 6.16869 14.1962 6.54231 14.1158C7.18684 13.9748 8.2066 14.3838 8.36894 15.1809" fill="#0060AF"/>
<path d="M9.80401 1.81641C8.09309 1.81641 6.61516 2.95935 6.6205 4.9371C6.62584 6.60022 7.94624 7.49056 8.4174 8.1265C9.1294 9.0848 9.51477 10.2191 9.55482 11.9547C9.58596 13.336 9.58436 14.7 9.59131 15.1834H9.96902C9.96244 14.6776 9.94535 13.2296 9.96492 11.912C9.99055 10.1758 10.3898 9.0848 11.1022 8.1265C11.5774 7.49056 12.8967 6.60022 12.8996 4.9371C12.906 2.95935 11.429 1.81641 9.71946 1.81641" fill="#0060AF"/>
<path d="M10.2383 15.1805C10.2383 14.3833 10.2294 12.2527 10.2484 11.9902C10.2317 8.8197 12.506 6.58323 13.9449 6.75757C14.9398 6.84503 15.7726 7.25593 16.2216 8.43801C16.6361 9.53966 16.263 11.005 14.8851 11.3488C13.4093 11.7181 12.5491 12.0253 11.9241 12.4588C11.1612 12.9894 10.5813 14.0033 10.5635 15.1817" fill="#0060AF"/>
<path d="M10.8544 15.1821C10.8491 14.1604 11.4119 13.2569 12.1456 12.7713C12.801 12.3422 13.6784 12.0602 15.0908 11.6971C15.5287 11.5838 15.9852 11.3323 16.1243 11.0117C16.5004 11.3938 16.5682 12.2527 16.5023 12.7547C16.4242 13.3356 15.7558 14.2931 14.7485 14.3306C14.1324 14.3556 13.3492 14.1962 12.9772 14.1158C12.3352 13.9748 11.3126 14.3838 11.1495 15.1809" fill="#0060AF"/>
<path d="M11.3821 18.4805L11.1632 16.8622L11.6917 16.7811C11.8204 16.7632 11.977 16.786 12.0397 16.8676C12.1089 16.9529 12.1301 17.0234 12.1434 17.1352C12.1634 17.2735 12.1239 17.4334 11.9701 17.5131V17.518C12.1418 17.518 12.2456 17.6429 12.2757 17.8539C12.2801 17.8984 12.2931 18.0061 12.2801 18.0958C12.2453 18.3095 12.1194 18.3782 11.9071 18.4083L11.3821 18.4805ZM11.7223 18.1907C11.785 18.1816 11.8485 18.1783 11.8982 18.1462C11.9742 18.0959 11.9672 17.9882 11.9567 17.9084C11.9302 17.7327 11.885 17.666 11.7011 17.6936L11.5856 17.7116L11.6588 18.1997L11.7223 18.1907ZM11.6116 17.443C11.6815 17.4315 11.7764 17.423 11.8159 17.3557C11.8366 17.3108 11.8631 17.2751 11.8457 17.1752C11.8241 17.0568 11.7853 16.9834 11.6369 17.0119L11.4986 17.0344L11.553 17.4491" fill="#0060AF"/>
<path d="M13.6714 17.5078C13.6755 17.5379 13.6803 17.5714 13.6821 17.6015C13.7248 17.8967 13.6714 18.141 13.3439 18.2083C12.8597 18.3027 12.767 17.998 12.6817 17.5714L12.6363 17.3406C12.5696 16.9324 12.5409 16.6234 13.013 16.5282C13.2791 16.479 13.4549 16.5862 13.5281 16.8545C13.5395 16.8946 13.5537 16.9342 13.5591 16.9744L13.2695 17.035C13.236 16.9342 13.1917 16.7541 13.0614 16.7693C12.8275 16.7977 12.9047 17.0925 12.9288 17.2157L13.0158 17.6587C13.042 17.7927 13.094 18.0067 13.2963 17.9654C13.4606 17.932 13.3891 17.6728 13.3745 17.5666" fill="#0060AF"/>
<path d="M14.1362 17.9971L14.036 16.3224L14.4251 16.2021L15.2409 17.6586L14.9346 17.7515L14.7412 17.3813L14.4011 17.4848L14.4451 17.9057L14.1362 17.9971ZM14.3726 17.2144L14.6184 17.1423L14.292 16.4647" fill="#0060AF"/>
<path d="M4.52567 16.731C4.64742 16.3362 4.75653 16.0455 5.22111 16.1746C5.46978 16.2449 5.62392 16.356 5.61663 16.6486C5.61542 16.7137 5.5942 16.78 5.58031 16.8444L5.29106 16.7635C5.32898 16.6019 5.35301 16.4737 5.1565 16.4124C4.92937 16.3493 4.87401 16.6282 4.84269 16.7487L4.72503 17.1877C4.68765 17.3181 4.64279 17.5335 4.84269 17.5891C5.00787 17.6341 5.10808 17.4699 5.16789 17.2301L4.9655 17.1758L5.03546 16.9218L5.51125 17.0768L5.28537 17.923L5.06643 17.8628L5.11574 17.6839H5.1095C5.00875 17.8301 4.88576 17.8455 4.77807 17.8245C4.30227 17.6942 4.35194 17.3792 4.4655 16.9584" fill="#0060AF"/>
<path d="M6.29651 17.4457L6.15322 18.1341L5.83069 18.0635L6.17441 16.4561L6.72424 16.5819C7.04607 16.6522 7.14325 16.7974 7.09769 17.0961C7.0717 17.2676 6.98822 17.4524 6.78441 17.4375L6.78227 17.4346C6.95458 17.4958 6.96917 17.5838 6.93909 17.7359C6.9261 17.8007 6.83656 18.1935 6.89833 18.257L6.90046 18.3051L6.56671 18.217C6.55283 18.1081 6.6 17.9123 6.61869 17.8039C6.63756 17.708 6.66764 17.5728 6.57152 17.5219C6.49623 17.4813 6.46828 17.4833 6.3832 17.4635L6.29651 17.4457ZM6.35151 17.1967L6.56867 17.2561C6.70057 17.2754 6.77391 17.2061 6.79989 17.0448C6.82339 16.8967 6.79295 16.8388 6.67458 16.8102L6.44176 16.7624" fill="#0060AF"/>
<path d="M8.36531 16.8148L8.68428 16.8523L8.54686 17.9822C8.48012 18.3405 8.34341 18.4972 7.95431 18.4481C7.55843 18.3975 7.46445 18.2148 7.48848 17.8537L7.62679 16.7246L7.94825 16.7619L7.8103 17.8657C7.79571 17.9856 7.7683 18.1632 7.97887 18.1847C8.16559 18.1991 8.20796 18.0738 8.22896 17.918" fill="#0060AF"/>
<path d="M9.03601 18.5104L9.13195 16.8945L9.7448 16.9214C10.0344 16.9358 10.1102 17.1754 10.1012 17.4041C10.0928 17.5431 10.0499 17.6983 9.93028 17.7825C9.8322 17.8541 9.70618 17.8711 9.58923 17.8653L9.38952 17.8541L9.34965 18.5313L9.03601 18.5104ZM9.3986 17.6076L9.56093 17.6168C9.69283 17.6217 9.78023 17.5689 9.79162 17.3727C9.79803 17.1843 9.72772 17.1524 9.55684 17.1448L9.42814 17.1403" fill="#0060AF"/>
<path d="M52.2599 3.37811L49.8242 7.85631C48.9048 7.10011 47.7822 6.54352 46.3498 6.54352C42.9602 6.54352 41.5834 9.10293 41.5834 10.9058C41.5834 12.244 42.4484 14.2185 45.4644 14.2185C46.7304 14.2185 48.5301 13.3264 49.0481 12.9205L46.6391 18.116C45.4908 18.348 45.1136 18.4919 44.1416 18.5224C38.7434 18.6855 36.562 15.3265 36.5636 11.894C36.5672 7.35651 40.5499 1.83814 47.1522 1.83814C47.5568 1.83814 48.0517 1.97986 48.4748 2.1369L48.9023 1.58301" fill="#0060AF"/>
<path d="M62.3103 1.72363L63.0001 18H57.8669L57.8639 15.2085H54.3637L53.2117 18H47.6448L53.4648 6.37727L52.1524 6.36862L54.646 1.72363H62.3103ZM57.8306 6.7029L55.8516 11.4371H57.8902" fill="#0060AF"/>
<path d="M33.3228 1.72418C35.8649 1.73861 37.3013 3.13632 37.3013 5.15537C37.3013 7.01664 35.7864 8.66426 34.1233 9.51619C35.8355 10.1537 35.9836 11.7188 35.9836 12.826C35.9836 15.501 33.3337 18.0006 29.8892 18.0006H22.3773L25.3075 6.53973L24.1039 6.5327L26.5644 1.72418C26.5644 1.72418 31.2557 1.70976 33.3228 1.72418ZM30.8289 8.32329C31.3547 8.32329 32.2832 8.18843 32.5153 7.15763C32.7696 6.03868 31.8983 6.00856 31.4804 6.00856L29.987 6.00193L29.4661 8.32335L30.8289 8.32329ZM28.7175 11.1995L28.0299 13.8745H29.7883C30.4802 13.8745 31.4231 13.5267 31.6541 12.6562C31.8823 11.7831 31.2232 11.1995 30.5338 11.1995" fill="#0060AF"/>
</g>
<defs>
<clipPath id="clip0_666_163">
<rect width="63" height="20" fill="white"/>
</clipPath>
</defs>
</svg>
