<svg width="63" height="20" viewBox="0 0 63 20" fill="none" xmlns="http://www.w3.org/2000/svg">
<path fill-rule="evenodd" clip-rule="evenodd" d="M37.9409 0H41.8186L51.27 13.9227V2.12152C51.27 0.928125 49.7757 0.0440564 49.7757 0.0440564H54.6222C54.6222 0.0440564 53.35 0.839856 53.35 2.09957V20C53.35 20 51.1083 19.0056 49.4119 16.4861C47.7154 13.9667 41.3543 4.88395 41.3543 4.88395V16.9061C41.3543 17.7681 42.6869 18.829 42.6869 18.829H37.9009C37.9009 18.829 39.2335 18.0334 39.2335 16.9726V2.29836C39.2335 0.707225 37.9409 0 37.9409 0ZM58.7974 13.9204V2.10386C58.7974 0.908938 57.2948 0.0237946 57.2948 0.0237946H63C63 0.0237946 61.721 0.820514 61.721 2.08191V16.7829C61.721 17.9115 62.9392 18.8405 62.9392 18.8405H57.4572C57.4572 18.8405 58.7974 17.9331 58.7974 17.0041V13.9204ZM26.2659 1.9043V7.6063H28.7452C29.8941 7.6063 31.527 6.94329 31.527 4.62282C31.527 2.3022 29.1082 1.9043 28.2614 1.9043H26.2659ZM26.2659 9.46271V16.8883H29.5314C30.8014 16.8883 33.16 15.6951 33.16 13.3746C33.16 11.054 31.2246 9.46271 29.4105 9.46271H26.2659ZM22.0417 0.0170407H30.4223C32.2971 0.0170407 34.4297 1.77182 34.4297 4.15861C34.4297 7.40735 32.1516 7.84947 32.1516 7.84947C32.1516 7.84947 36.1431 8.91023 36.1431 13.0871C36.1431 17.2644 31.7877 18.8405 30.3364 18.8405L21.9342 18.817C21.9342 18.817 23.3831 17.9936 23.3831 16.6014V2.27994C23.3831 0.821439 22.0417 0.0170407 22.0417 0.0170407Z" fill="#006677"/>
<path fill-rule="evenodd" clip-rule="evenodd" d="M0 18.8401H17.2229V0.0166016H0V18.8401Z" fill="white"/>
<path fill-rule="evenodd" clip-rule="evenodd" d="M0 0.0166016H5.38211C5.36652 0.0585071 5.32691 0.169957 5.27873 0.373515C5.04333 1.36857 4.70497 4.24137 7.0673 8.45049C7.65005 9.48899 8.21481 10.3141 8.79419 11.1216L6.92277 12.7569C3.81927 8.60353 0 3.31079 0 3.31079V0.0166016ZM0 7.19308V18.8401L5.21834 14.2349L1.621 9.34253L0 7.19308ZM17.2229 6.01657C17.1846 5.95947 17.025 5.69497 16.7913 5.43261C16.076 4.6296 14.5291 3.33704 12.6654 4.44216C10.9439 5.46301 10.0633 7.80205 12.2101 10.8945C13.974 13.439 15.5691 13.6875 16.4674 13.5438C16.6221 13.5191 17.0996 13.3931 17.2229 13.3108V6.01657ZM17.2229 2.60495L17.2228 0.0166016H7.6426C7.6315 0.0621958 7.56184 0.220617 7.53417 0.485729C7.47208 1.0812 7.45018 2.21564 7.83657 3.82459C8.36707 6.03253 9.84255 8.00085 9.84255 8.00085C9.84255 8.00085 9.69072 5.8058 11.5423 3.777C12.7137 2.4935 14.0422 2.09575 15.1192 2.11402C15.4994 2.12047 15.8488 2.17696 16.1494 2.25156C16.2761 2.28288 17.1245 2.54922 17.2229 2.60495ZM17.2229 14.252C17.1804 14.2911 17.078 14.363 16.9032 14.4931C16.4338 14.8427 15.4233 15.3586 13.7582 15.0851C12.2495 14.837 10.8062 13.7389 9.4813 12.03L7.586 13.6913C8.92313 15.4501 9.95857 16.8578 10.3059 17.1303C11.6134 18.1562 12.5137 17.7667 12.5137 17.7667L11.3026 18.8401H17.2229V14.252ZM8.28855 18.8401H1.72227L2.25824 18.3641L5.90404 15.171C5.90404 15.171 7.34919 17.2218 7.91775 17.9744C8.02534 18.1169 8.10723 18.2508 8.16945 18.3716C8.28167 18.5893 8.26749 18.7328 8.28855 18.8401Z" fill="#E45300"/>
</svg>
