<svg width="63" height="20" viewBox="0 0 63 20" fill="none" xmlns="http://www.w3.org/2000/svg">
<path d="M0 13.0636V0.286527H6.12539C7.01265 0.270465 7.90005 0.312627 8.77951 0.412627C9.36718 0.48799 9.92703 0.674092 10.4169 0.956976C10.9068 1.23986 11.314 1.61219 11.6082 2.04606C11.9305 2.51469 12.0969 3.04743 12.0902 3.58858C12.0926 4.12006 11.9336 4.64329 11.628 5.10873C11.3225 5.57418 10.8806 5.96645 10.344 6.2484C11.0208 6.46054 11.6151 6.82473 12.0622 7.30118C12.5756 7.87099 12.8462 8.56918 12.8305 9.28357C12.8277 9.88325 12.6604 10.4743 12.3415 11.0109C12.0342 11.5485 11.5691 12.0116 10.99 12.3569C10.3648 12.708 9.64407 12.9209 8.89476 12.9757C8.38484 13.0226 7.201 13.0519 5.26979 13.0607H0V13.0636ZM5.96475 10.6179C6.634 10.6383 7.30413 10.6158 7.96927 10.5505C8.3442 10.5037 8.68778 10.348 8.94016 10.1106C9.19393 9.84621 9.3187 9.51079 9.28935 9.17215C9.30195 8.87144 9.20177 8.57499 9.00301 8.32467C8.79903 8.08667 8.50853 7.91073 8.17533 7.82318C7.79118 7.71176 6.92511 7.65602 5.59457 7.65602H3.41192V10.6179H5.96475ZM5.15804 5.22788C6.31048 5.22788 7.02988 5.21321 7.30227 5.18682C7.70498 5.16119 8.08536 5.02162 8.38138 4.79092C8.51015 4.67958 8.61018 4.54707 8.67502 4.40174C8.73994 4.25639 8.76837 4.10136 8.75854 3.94635C8.77621 3.64909 8.66027 3.35709 8.43378 3.12817C8.17002 2.90368 7.81684 2.76895 7.44196 2.74987C7.15909 2.72348 6.30698 2.70881 4.91707 2.70881H3.41192V5.22788H5.15804Z" fill="#00529C"/>
<path d="M25.0256 13.0633L22.8011 10.2832C22.3291 9.65571 21.8113 9.05339 21.2506 8.47971C21.0259 8.27074 20.746 8.109 20.4333 8.00751C19.9666 7.90416 19.4838 7.86068 19.0015 7.87848H18.6069V13.0633H15.1985V0.286133H21.6941C23.318 0.286133 24.4704 0.400502 25.2143 0.632174C25.9742 0.868669 26.6175 1.31278 27.0406 1.89317C27.4967 2.50855 27.732 3.22124 27.7182 3.94596C27.7502 4.83788 27.3754 5.70639 26.6705 6.37411C25.9952 6.96113 25.1165 7.35416 24.1595 7.49726C24.5886 7.73493 24.9846 8.01235 25.34 8.32429C25.9839 8.96584 26.5611 9.65261 27.0652 10.3771L29.0732 13.0691L25.0256 13.0633ZM20.6045 5.54126C22.3506 5.54126 22.9932 5.46209 23.2237 5.39757C23.521 5.31783 23.7779 5.15677 23.9536 4.94009C24.1429 4.68911 24.2355 4.39524 24.2189 4.09845C24.24 3.77322 24.1154 3.45313 23.8697 3.20109C23.6074 2.96227 23.2518 2.81036 22.8674 2.77293C22.7138 2.75534 22.2109 2.73188 20.7232 2.73188H18.6069V5.53247L20.6045 5.54126Z" fill="#00529C"/>
<path d="M33.7 0.286133H30.2915V13.0633H33.7V0.286133Z" fill="#00529C"/>
<path d="M40.2305 13.0633L34.7896 0.286133H38.4809L42.0709 9.10429L45.5456 0.286133H49.1671L43.7157 13.0633H40.2305Z" fill="#00529C"/>
<path d="M59.071 13.0633L57.7824 10.2568H52.1599L50.9376 13.0779H47.3126L53.239 0.286133H56.6858L62.7798 13.0633H59.071ZM56.6649 7.78468L54.9187 3.86678L53.232 7.79345L56.6649 7.78468Z" fill="#00529C"/>
<path d="M0.024292 14.9491H2.23138C2.55827 14.9443 2.88512 14.96 3.20921 14.996C3.41552 15.0236 3.61217 15.0886 3.78543 15.1866C3.95884 15.2877 4.10321 15.4199 4.20799 15.5737C4.32344 15.7379 4.38266 15.9257 4.37912 16.1162C4.37954 16.3289 4.30654 16.5371 4.16893 16.7157C4.03133 16.8942 3.83504 17.0353 3.60384 17.1221C3.91011 17.1883 4.18231 17.3366 4.37912 17.5444C4.55925 17.7452 4.65393 17.991 4.64802 18.2424C4.64841 18.4563 4.58858 18.6673 4.47341 18.8582C4.36534 19.0493 4.20059 19.2139 3.99497 19.3362C3.77122 19.46 3.51451 19.5356 3.24763 19.5561C3.06254 19.5561 2.61553 19.5825 1.90312 19.5855H0.024292V14.9491ZM1.13832 15.7115V16.7819H1.8682C2.30473 16.7819 2.56664 16.7819 2.67839 16.7819C2.85382 16.7689 3.01822 16.7046 3.14286 16.6001C3.19791 16.5525 3.24084 16.4959 3.26905 16.4339C3.29727 16.3719 3.31018 16.3057 3.30699 16.2394C3.30724 16.1089 3.24859 15.9831 3.14286 15.8875C3.03106 15.7912 2.88025 15.7336 2.7203 15.7262C2.61204 15.7262 2.29425 15.7262 1.77041 15.7262L1.13832 15.7115ZM1.13832 17.5532V18.7937H2.18599C2.43689 18.7996 2.68795 18.7888 2.93682 18.7614C3.09352 18.7417 3.23694 18.6763 3.34192 18.5767C3.44947 18.4629 3.50298 18.3198 3.49208 18.1749C3.49773 18.0491 3.4562 17.925 3.37335 17.82C3.28754 17.7195 3.16488 17.6454 3.02412 17.6089C2.69966 17.55 2.36736 17.5274 2.03582 17.5415L1.13832 17.5532Z" fill="#F27024"/>
<path d="M5.30811 19.5744V14.9497H7.65489C8.08853 14.9333 8.52253 14.9759 8.94002 15.0758C9.20754 15.1584 9.43396 15.3144 9.58262 15.5186C9.74535 15.7384 9.82902 15.993 9.82356 16.2518C9.84062 16.5649 9.71585 16.8719 9.47437 17.111C9.18058 17.3549 8.7932 17.5036 8.38125 17.5304C8.60175 17.6342 8.80288 17.7647 8.97844 17.9174C9.21538 18.1531 9.42804 18.4052 9.61405 18.6711L10.2881 19.5744H8.94002L8.13332 18.5655C7.9553 18.3275 7.75931 18.0993 7.54663 17.8822C7.45119 17.7944 7.33116 17.7278 7.19741 17.6887C7.01422 17.6476 6.82452 17.6307 6.63515 17.6389H6.42562V19.5744H5.30811ZM6.42562 16.8998H7.24979C7.58532 16.9142 7.92173 16.8954 8.2521 16.8441C8.37863 16.8092 8.48788 16.7401 8.56287 16.6476C8.64293 16.5441 8.68203 16.422 8.67466 16.2987C8.68188 16.1618 8.62971 16.0274 8.52791 15.9204C8.41759 15.8208 8.26946 15.7565 8.10889 15.7385C8.01807 15.7385 7.75962 15.7385 7.29519 15.7385H6.42562V16.8998Z" fill="#F27024"/>
<path d="M10.5568 19.5738V14.9492H11.6708V19.5738H10.5568Z" fill="#F27024"/>
<path d="M17.311 18.7615L17.4193 19.0841H17.4611L17.5695 18.7615L19.2213 14.9492H19.7067L17.6637 19.5533H17.2168L15.1772 14.9492H15.6662L17.311 18.7615Z" fill="#00529C"/>
<path d="M20.604 15.1724H20.1639V14.6562H20.604V15.1724ZM20.604 19.5712H20.1639V16.1518H20.604V19.5712Z" fill="#00529C"/>
<path d="M23.4326 16.4803L23.1114 16.4597C22.8566 16.4518 22.6076 16.5239 22.413 16.6621C22.2208 16.809 22.0857 17.0012 22.0253 17.2134V19.5595H21.5713V16.1518H21.9694L22.0253 16.7237V16.7618C22.13 16.565 22.2936 16.3942 22.5002 16.2662C22.7053 16.1475 22.9497 16.0859 23.1987 16.0903C23.2521 16.0858 23.3059 16.0858 23.3593 16.0903C23.4008 16.095 23.4417 16.1028 23.4816 16.1137L23.4326 16.4803Z" fill="#00529C"/>
<path d="M24.6865 15.2773V16.1571H25.5839V16.4679H24.6865V18.6966C24.6672 18.8655 24.7191 19.0347 24.8331 19.1747C24.8811 19.221 24.9408 19.2577 25.0079 19.282C25.075 19.3064 25.1477 19.3178 25.2207 19.3154C25.273 19.3185 25.3256 19.3185 25.3779 19.3154L25.563 19.289L25.6293 19.5823C25.5586 19.6115 25.4834 19.6323 25.4058 19.6439C25.3186 19.6498 25.2309 19.6488 25.1439 19.641C25.019 19.6467 24.8941 19.6292 24.7782 19.5896C24.6623 19.5501 24.5582 19.4895 24.4734 19.4122C24.294 19.2034 24.2097 18.9474 24.2359 18.6908V16.4621H23.5375V16.1512H24.2359V15.2715L24.6865 15.2773Z" fill="#00529C"/>
<path d="M28.8459 19.0194C28.7252 19.2105 28.5439 19.3698 28.3221 19.4798C28.0833 19.5917 27.8131 19.6474 27.5398 19.6411C27.3511 19.6473 27.1632 19.6175 26.9903 19.554C26.8173 19.4905 26.6637 19.395 26.541 19.2745C26.2727 18.9401 26.1495 18.5384 26.1917 18.1367V16.1514H26.6457V18.1426C26.6065 18.4609 26.6924 18.7811 26.8902 19.0546C26.9754 19.145 27.0853 19.217 27.2104 19.2645C27.3356 19.3119 27.4725 19.3334 27.6096 19.3273C27.8983 19.3392 28.1837 19.2724 28.4233 19.1367C28.6282 19.0043 28.7774 18.8203 28.8493 18.6118V16.1514H29.2999V19.5736H28.8843L28.8459 19.0194Z" fill="#00529C"/>
<path d="M32.7674 19.5739C32.7394 19.4547 32.7185 19.3569 32.7045 19.2807C32.6916 19.1922 32.6858 19.103 32.6871 19.0138C32.537 19.2058 32.3332 19.3639 32.0933 19.4742C31.8263 19.5978 31.5253 19.6605 31.2203 19.656C31.0522 19.665 30.8836 19.646 30.7242 19.6003C30.5648 19.5545 30.4177 19.4827 30.2914 19.3892C30.1794 19.2938 30.0923 19.1799 30.0358 19.0546C29.9792 18.9294 29.9545 18.7956 29.9631 18.6619C29.9624 18.5145 30.0059 18.3693 30.0895 18.2396C30.1731 18.11 30.2942 18.0001 30.4415 17.92C30.8088 17.7147 31.2439 17.6121 31.6848 17.6267H32.6871V17.1956C32.6952 17.0866 32.6744 16.9774 32.6261 16.8759C32.5777 16.7745 32.5031 16.6833 32.4076 16.6091C32.1845 16.4654 31.9057 16.3965 31.6254 16.4156C31.3575 16.4043 31.0933 16.4718 30.8781 16.6062C30.7897 16.6611 30.7181 16.7327 30.6689 16.8153C30.6198 16.8978 30.5945 16.989 30.5952 17.0813H30.1761V17.0636C30.1708 16.9322 30.2041 16.8018 30.2729 16.6836C30.3417 16.5656 30.444 16.4634 30.5707 16.3862C30.8862 16.1973 31.2641 16.0957 31.6516 16.0957C32.0391 16.0957 32.4169 16.1973 32.7325 16.3862C32.8713 16.4887 32.9804 16.6165 33.0512 16.7598C33.1221 16.9032 33.1528 17.0583 33.1411 17.2132V18.8936C33.1403 19.0112 33.1484 19.1287 33.1655 19.2454C33.1818 19.3594 33.2087 19.4722 33.2458 19.5827L32.7674 19.5739ZM31.2692 19.3071C31.5873 19.3131 31.9006 19.2407 32.1702 19.0989C32.409 18.9747 32.591 18.7867 32.6871 18.5651V17.9112H31.6813C31.3582 17.9001 31.0397 17.9773 30.7733 18.1311C30.6673 18.1884 30.58 18.2669 30.519 18.3595C30.458 18.4522 30.4254 18.5561 30.4241 18.6619C30.4199 18.7487 30.4381 18.8353 30.4772 18.9158C30.5164 18.9962 30.5757 19.0686 30.6511 19.1282C30.8223 19.252 31.0435 19.316 31.2692 19.3071Z" fill="#00529C"/>
<path d="M34.5731 19.5741H34.1051V14.6562H34.5731V19.5741Z" fill="#00529C"/>
<path d="M40.0805 18.2923H37.6744L37.1226 19.5739H36.6686L38.6836 14.9697H39.1131L41.1107 19.5739H40.6463L40.0805 18.2923ZM37.8175 17.9521H39.9338L38.8862 15.5122H38.8652L37.8175 17.9521Z" fill="#00529C"/>
<path d="M43.0416 19.322C43.3192 19.3257 43.59 19.2502 43.8099 19.1079C43.9196 19.0406 44.0085 18.9522 44.0692 18.8502C44.13 18.7482 44.1608 18.6355 44.1591 18.5214H44.5608V18.539C44.5665 18.6917 44.529 18.8434 44.4513 18.9816C44.3735 19.1197 44.2578 19.2404 44.1137 19.3337C43.8211 19.5419 43.4495 19.6552 43.0661 19.6533C42.8246 19.6628 42.5838 19.6242 42.3635 19.5406C42.1432 19.457 41.9496 19.3308 41.7984 19.1724C41.4838 18.8186 41.3236 18.3848 41.3444 17.9437V17.8088C41.3224 17.3684 41.4828 16.9352 41.7984 16.5829C41.9487 16.4244 42.1417 16.2981 42.3615 16.2145C42.5812 16.1309 42.8215 16.0924 43.0626 16.102C43.4527 16.092 43.8334 16.2039 44.1312 16.4158C44.2754 16.5267 44.3881 16.6632 44.4613 16.8155C44.5343 16.9677 44.566 17.1317 44.5538 17.2956V17.3132H44.1417C44.1477 17.1907 44.1221 17.0686 44.0666 16.9552C44.0111 16.8419 43.9272 16.7399 43.8204 16.6563C43.6062 16.4942 43.3264 16.4071 43.0381 16.4129C42.8519 16.4032 42.6659 16.4347 42.4986 16.5042C42.3313 16.5736 42.1887 16.6786 42.0847 16.8088C41.8658 17.1047 41.7575 17.4489 41.774 17.7971V17.9319C41.7567 18.2829 41.8649 18.6302 42.0847 18.929C42.1899 19.0586 42.3334 19.163 42.5012 19.2319C42.6689 19.3008 42.8552 19.3319 43.0416 19.322Z" fill="#00529C"/>
<path d="M46.7259 19.322C47.0035 19.3257 47.2744 19.2502 47.4942 19.1079C47.6007 19.039 47.6862 18.95 47.7439 18.848C47.8015 18.7461 47.8297 18.6342 47.826 18.5214H48.2276V18.539C48.2334 18.6917 48.1958 18.8434 48.1182 18.9816C48.0404 19.1197 47.9247 19.2404 47.7806 19.3337C47.488 19.5419 47.1164 19.6552 46.7329 19.6533C46.4915 19.6628 46.2507 19.6242 46.0304 19.5406C45.8101 19.457 45.6164 19.3308 45.4652 19.1724C45.1507 18.8186 44.9904 18.3848 45.0113 17.9437V17.8088C44.9893 17.3684 45.1497 16.9352 45.4652 16.5829C45.6155 16.4244 45.8085 16.2981 46.0283 16.2145C46.2481 16.1309 46.4884 16.0924 46.7295 16.102C47.1255 16.0884 47.5133 16.2004 47.8155 16.4158C47.9597 16.5267 48.0724 16.6632 48.1456 16.8155C48.2187 16.9677 48.2503 17.1317 48.2381 17.2956V17.3132H47.8435C47.8494 17.1907 47.8238 17.0686 47.7684 16.9552C47.7129 16.8419 47.6289 16.7399 47.5222 16.6563C47.3081 16.4942 47.0281 16.4071 46.7399 16.4129C46.5537 16.4032 46.3677 16.4347 46.2004 16.5042C46.0332 16.5736 45.8904 16.6786 45.7866 16.8088C45.5676 17.1047 45.4593 17.4489 45.4757 17.7971V17.9319C45.4585 18.2829 45.5667 18.6302 45.7866 18.929C45.8901 19.0564 46.0309 19.1595 46.1953 19.2282C46.3598 19.297 46.5425 19.3293 46.7259 19.322Z" fill="#00529C"/>
<path d="M48.6678 17.8145C48.6458 17.3643 48.821 16.923 49.1602 16.574C49.3265 16.4217 49.5285 16.3002 49.7537 16.217C49.9788 16.1338 50.2222 16.0908 50.4681 16.0908C50.7141 16.0908 50.9573 16.1338 51.1825 16.217C51.4076 16.3002 51.6098 16.4217 51.776 16.574C52.1176 16.922 52.2942 17.3638 52.2718 17.8145V17.9171C52.2945 18.3682 52.1192 18.8106 51.7794 19.1605C51.6124 19.3121 51.4098 19.433 51.1845 19.5157C50.959 19.5984 50.7158 19.6411 50.4699 19.6411C50.2239 19.6411 49.9806 19.5984 49.7553 19.5157C49.5299 19.433 49.3273 19.3121 49.1602 19.1605C48.8204 18.8106 48.6452 18.3682 48.6678 17.9171V17.8145ZM49.1184 17.9171C49.1005 18.2737 49.2233 18.6251 49.4675 18.9171C49.5856 19.0433 49.7361 19.1454 49.9079 19.2156C50.0797 19.2858 50.2683 19.3222 50.4593 19.3222C50.6504 19.3222 50.839 19.2858 51.0108 19.2156C51.1826 19.1454 51.3332 19.0433 51.4512 18.9171C51.6954 18.6251 51.8181 18.2737 51.8004 17.9171V17.8145C51.8166 17.4599 51.6939 17.1108 51.4512 16.8204C51.3389 16.6905 51.1904 16.5857 51.0187 16.5151C50.847 16.4446 50.6574 16.4104 50.4663 16.4157C50.2742 16.4089 50.0831 16.4428 49.9105 16.5139C49.7378 16.5851 49.5892 16.6915 49.4781 16.8233C49.2353 17.1137 49.1126 17.4629 49.1288 17.8174L49.1184 17.9171Z" fill="#00529C"/>
<path d="M55.593 19.0194C55.4723 19.2105 55.2909 19.3698 55.0691 19.4798C54.8304 19.5917 54.5601 19.6474 54.2868 19.6411C54.0965 19.6487 53.9066 19.6196 53.7317 19.556C53.5567 19.4925 53.4015 19.3962 53.2776 19.2745C53.0033 18.9419 52.8737 18.5401 52.9109 18.1367V16.1514H53.3649V18.1426C53.3327 18.4569 53.4221 18.7716 53.6199 19.0399C53.7051 19.1304 53.8149 19.2023 53.94 19.2498C54.0652 19.2972 54.2021 19.3188 54.3393 19.3127C54.6269 19.325 54.9114 19.2581 55.1495 19.122C55.3555 18.9899 55.506 18.806 55.579 18.5971V16.1514H56.0295V19.5736H55.6314L55.593 19.0194Z" fill="#00529C"/>
<path d="M57.3356 16.1519L57.3774 16.7384C57.499 16.5346 57.6877 16.3644 57.9211 16.2479C58.1544 16.1314 58.4227 16.0737 58.6941 16.0815C58.8849 16.0707 59.0763 16.0965 59.2535 16.1569C59.4309 16.2174 59.5894 16.3109 59.7173 16.4305C59.9787 16.7389 60.1023 17.1147 60.0665 17.4921V19.5742H59.616V17.495C59.6503 17.2 59.5573 16.9045 59.354 16.6622C59.2584 16.5789 59.1424 16.514 59.0139 16.472C58.8855 16.4299 58.7478 16.4118 58.6102 16.4188C58.3311 16.4084 58.0562 16.4787 57.8314 16.6182C57.6301 16.7571 57.4819 16.9427 57.4054 17.1519V19.5742H56.9235V16.1519H57.3356Z" fill="#00529C"/>
<path d="M61.6482 15.2773V16.1571H62.5422V16.4679H61.6482V18.6966C61.63 18.865 61.6805 19.0336 61.7914 19.1747C61.8394 19.221 61.8991 19.2577 61.9662 19.282C62.0333 19.3064 62.106 19.3178 62.179 19.3154C62.2325 19.3185 62.2862 19.3185 62.3397 19.3154L62.5213 19.289L62.5876 19.5823C62.5171 19.612 62.4419 19.6327 62.3641 19.6439C62.2767 19.659 62.1878 19.6668 62.0987 19.6674C61.9743 19.6735 61.8497 19.6561 61.7343 19.6165C61.6189 19.577 61.5154 19.5161 61.4317 19.4386C61.2496 19.2307 61.164 18.9743 61.1908 18.7172V16.4885H60.4923V16.1512H61.1908V15.2715L61.6482 15.2773Z" fill="#00529C"/>
</svg>
