<svg width="12" height="19" viewBox="0 0 12 19" fill="none" xmlns="http://www.w3.org/2000/svg">
<ellipse cx="5.9454" cy="4.09636" rx="3.09091" ry="3.09636" stroke="#3C3E95"/>
<path d="M8.41818 7.19272C8.10909 6.88308 3.47273 7.19272 3.47273 7.19272C3.47273 7.19272 1.92727 15.2433 2.23636 14.9336C2.23636 14.9336 3.18303 14.9731 4.4 15.0098C5.37274 15.0391 6.51817 15.0667 7.49091 15.0707C8.70788 15.0758 9.65455 15.0442 9.65455 14.9336C9.65455 14.624 8.41818 7.19272 8.41818 7.19272Z" fill="#27D6FF"/>
<path d="M3.47273 7.19272C3.47273 7.19272 8.10909 6.88308 8.41818 7.19272M3.47273 7.19272C3.47273 7.19272 1.92727 15.2433 2.23636 14.9336C2.23636 14.9336 3.18303 14.9731 4.4 15.0098M3.47273 7.19272C3.16364 7.19272 1 12.7662 1 12.7662M8.41818 7.19272L11.2 12.7662M8.41818 7.19272C8.41818 7.19272 9.65455 14.624 9.65455 14.9336C9.65455 15.0442 8.70788 15.0758 7.49091 15.0707M7.49091 15.0707V18.03M7.49091 15.0707C6.51817 15.0667 5.37274 15.0391 4.4 15.0098M4.4 15.0098V18.03" stroke="#3C3E95" stroke-linecap="round"/>
</svg>
