<svg width="26" height="19" viewBox="0 0 26 19" fill="none" xmlns="http://www.w3.org/2000/svg">
<path d="M11.7524 4.84443C11.7524 6.98352 10.0649 8.69585 8.00972 8.69585C5.95458 8.69585 4.26709 6.98352 4.26709 4.84443C4.26709 2.70534 5.95458 0.993011 8.00972 0.993011C10.0649 0.993011 11.7524 2.70534 11.7524 4.84443Z" fill="white" stroke="#3C3E95"/>
<path d="M21.8053 5.36461C21.8053 7.16412 20.3862 8.60116 18.6622 8.60116C16.9381 8.60116 15.519 7.16412 15.519 5.36461C15.519 3.56511 16.9381 2.12807 18.6622 2.12807C20.3862 2.12807 21.8053 3.56511 21.8053 5.36461Z" fill="white" stroke="#3C3E95"/>
<path d="M10.6382 10.2834C8.57218 11.4186 6.36478 10.7564 5.56544 10.2834C2.09755 10.1699 1.07686 12.9479 1 14.3511V15.8173C1.18446 17.1416 2.12215 17.5043 2.56793 17.52H13.5434C14.7609 17.4822 15.1267 16.3691 15.1575 15.8173V14.6821C15.1575 14.4551 15.096 13.9569 15.0653 13.7362C15.0284 13.2821 14.7424 12.6326 14.6041 12.4118C13.1284 10.2172 11.376 10.11 10.6382 10.2834Z" fill="#27D6FF" stroke="#3C3E95" stroke-linecap="round"/>
<path d="M16.3104 16.2904C16.7163 13.3768 15.5265 11.4502 14.8809 10.8511C15.4711 10.3971 16.6025 10.2836 17.0944 10.2836C18.3856 10.8511 19.7845 10.52 20.3225 10.2836C21.5031 10.17 22.7205 10.93 23.1817 11.3241C24.2515 12.0809 24.5805 13.7205 24.6112 14.4458C24.5375 15.9593 23.443 16.3062 22.905 16.2904H16.3104Z" fill="#27D6FF" stroke="#3C3E95" stroke-linecap="round"/>
</svg>
