<svg width="30" height="30" viewBox="0 0 30 30" fill="none" xmlns="http://www.w3.org/2000/svg">
<path d="M14.0502 3.55132C14.3495 2.63001 15.6529 2.63001 15.9523 3.55132L18.0041 9.86617C18.138 10.2782 18.5219 10.5571 18.9552 10.5571H25.595C26.5637 10.5571 26.9665 11.7968 26.1828 12.3662L20.811 16.269C20.4605 16.5236 20.3139 16.975 20.4478 17.387L22.4996 23.7018C22.7989 24.6231 21.7444 25.3893 20.9607 24.8199L15.589 20.9171C15.2385 20.6624 14.7639 20.6624 14.4134 20.9171L9.0417 24.8199C8.25799 25.3893 7.20351 24.6231 7.50286 23.7018L9.55468 17.387C9.68856 16.975 9.5419 16.5236 9.19141 16.269L3.81968 12.3662C3.03596 11.7968 3.43874 10.5571 4.40747 10.5571H11.0473C11.4805 10.5571 11.8645 10.2782 11.9983 9.86616L14.0502 3.55132Z" fill="#FFCC47"/>
</svg>
