<svg width="27" height="22" viewBox="0 0 27 22" fill="none" xmlns="http://www.w3.org/2000/svg">
<path d="M7.59717 2.85185V2C7.59717 1.44772 8.04488 1 8.59717 1H25C25.5523 1 26 1.44772 26 2V20C26 20.5523 25.5523 21 25 21H16.625" stroke="#24201D" stroke-linecap="round"/>
<path d="M16.9722 1L16.9954 20.4872" stroke="#24201D" stroke-linecap="round"/>
<path d="M11.7524 7.84443C11.7524 9.98352 10.0649 11.6959 8.00972 11.6959C5.95458 11.6959 4.26709 9.98352 4.26709 7.84443C4.26709 5.70534 5.95458 3.99301 8.00972 3.99301C10.0649 3.99301 11.7524 5.70534 11.7524 7.84443Z" fill="white" stroke="#3C3E95"/>
<path d="M21.8053 8.3646C21.8053 10.1641 20.3862 11.6011 18.6622 11.6011C16.9381 11.6011 15.519 10.1641 15.519 8.3646C15.519 6.5651 16.9381 5.12806 18.6622 5.12806C20.3862 5.12806 21.8053 6.5651 21.8053 8.3646Z" fill="white" stroke="#3C3E95"/>
<path d="M10.6382 13.2834C8.57218 14.4186 6.36478 13.7564 5.56544 13.2834C2.09755 13.1699 1.07686 15.9479 1 17.351V18.8173C1.18446 20.1416 2.12215 20.5043 2.56793 20.52H13.5434C14.7609 20.4822 15.1267 19.3691 15.1575 18.8173V17.6821C15.1575 17.4551 15.096 16.9569 15.0653 16.7362C15.0284 16.2821 14.7424 15.6326 14.6041 15.4118C13.1284 13.2172 11.376 13.11 10.6382 13.2834Z" fill="#27D6FF" stroke="#3C3E95" stroke-linecap="round"/>
<path d="M16.3104 19.2904C16.7163 16.3768 15.5265 14.4502 14.8809 13.8511C15.4711 13.3971 16.6025 13.2835 17.0944 13.2835C18.3856 13.8511 19.7845 13.52 20.3225 13.2835C21.5031 13.17 22.7205 13.93 23.1817 14.3241C24.2515 15.0809 24.5805 16.7205 24.6112 17.4458C24.5375 18.9593 23.443 19.3062 22.905 19.2904H16.3104Z" fill="#27D6FF" stroke="#3C3E95" stroke-linecap="round"/>
</svg>
