<svg width="21" height="21" viewBox="0 0 21 21" fill="none" xmlns="http://www.w3.org/2000/svg">
<path d="M5.4625 8.75C5.4625 7.65924 6.34674 6.775 7.4375 6.775C8.52826 6.775 9.4125 7.65924 9.4125 8.75V10.725H5.4625V8.75Z" stroke="#27D6FF" stroke-width="1.3"/>
<path d="M11.15 8.75C11.15 7.65924 12.0342 6.775 13.125 6.775C14.2158 6.775 15.1 7.65924 15.1 8.75V10.725H11.15V8.75Z" stroke="#27D6FF" stroke-width="1.3"/>
<path d="M3.275 8.09375C3.275 4.22431 6.41181 1.0875 10.2812 1.0875C14.1507 1.0875 17.2875 4.22431 17.2875 8.09375V10.725H3.275V8.09375Z" stroke="#3C3E95" stroke-width="1.3"/>
<path d="M0.65 14.0625C0.65 12.2123 2.14985 10.7125 4 10.7125H17C18.8502 10.7125 20.35 12.2123 20.35 14.0625V15.0625C20.35 15.8081 19.7456 16.4125 19 16.4125H2C1.25442 16.4125 0.65 15.8081 0.65 15.0625V14.0625Z" stroke="#3C3E95" stroke-width="1.3"/>
<path d="M18.8125 18.375L2.625 18.375" stroke="#3C3E95" stroke-width="1.3" stroke-linecap="round"/>
<path d="M18.8125 16.625V20.125" stroke="#3C3E95" stroke-width="1.3" stroke-linecap="round"/>
<path d="M2.1875 16.625V20.125" stroke="#3C3E95" stroke-width="1.3" stroke-linecap="round"/>
</svg>
