<svg width="32" height="25" viewBox="0 0 32 25" fill="none" xmlns="http://www.w3.org/2000/svg">
<path d="M27.881 8.96856L27.457 7.8296C26.5737 5.4572 24.3179 3.87605 21.7865 3.85497L10.4315 3.76042C7.72318 3.73787 5.2926 5.41893 4.35805 7.96098L4.00435 8.92307C2.12534 14.0341 5.88012 19.463 11.3254 19.5084L20.4401 19.5843C25.9548 19.6302 29.8053 14.1368 27.881 8.96856Z" fill="#27D6FF"/>
<path d="M21.6692 24.1484H10.0629C5.65796 24.1484 2.68791 19.6446 4.42276 15.5956C5.38955 13.3392 7.60812 11.8762 10.0629 11.8762H10.241H21.6939C24.0805 11.8762 26.2514 13.2752 27.2434 15.4471C29.1003 19.5128 26.1346 24.1484 21.6692 24.1484Z" fill="white" stroke="#3C3E95"/>
<ellipse cx="16.1755" cy="15.9385" rx="5.15482" ry="1.48127" fill="#27D6FF"/>
<path d="M22.9571 7.22861C22.9571 10.0464 21.2249 12.4607 18.7654 13.4627C18.4559 13.5888 18.1964 13.8195 17.986 14.0378C17.8312 14.1984 17.6736 14.3847 17.5281 14.5567C17.476 14.6184 17.4254 14.6782 17.3771 14.7343C17.1809 14.9621 17.0078 15.1466 16.8401 15.2743C16.6744 15.4004 16.5558 15.4385 16.4655 15.4385C16.4469 15.4385 16.358 15.4217 16.176 15.2857C16.0059 15.1587 15.8199 14.9783 15.6121 14.7661C15.5695 14.7226 15.5257 14.6773 15.481 14.6313C15.3194 14.4647 15.147 14.2869 14.9828 14.1371C14.783 13.9549 14.5264 13.747 14.2428 13.6596C11.4954 12.8123 9.49988 10.2528 9.49988 7.22861C9.49988 3.5125 12.5124 0.5 16.2285 0.5C19.9446 0.5 22.9571 3.5125 22.9571 7.22861Z" fill="white" stroke="#3C3E95"/>
<circle cx="15.9977" cy="7.1101" r="3.43655" fill="#27D6FF"/>
</svg>
