<svg width="25" height="25" viewBox="0 0 25 25" fill="none" xmlns="http://www.w3.org/2000/svg">
<rect x="0.5" y="1.81579" width="24" height="22.6842" rx="1.5" fill="#27D6FF" stroke="#3C3E95"/>
<path d="M0.5 8.39474H24.5V23C24.5 23.8284 23.8284 24.5 23 24.5H2C1.17157 24.5 0.5 23.8284 0.5 23V8.39474Z" fill="white" stroke="#3C3E95"/>
<rect x="4.1665" y="11.8421" width="1.38889" height="1.31579" fill="#3C3E95"/>
<rect x="18.0554" y="11.8421" width="1.38889" height="1.31579" fill="#3C3E95"/>
<rect x="15.2775" y="11.8421" width="1.38889" height="1.31579" fill="#3C3E95"/>
<rect x="12.5" y="11.8421" width="1.38889" height="1.31579" fill="#3C3E95"/>
<rect x="9.72205" y="11.8421" width="1.38889" height="1.31579" fill="#3C3E95"/>
<rect x="6.94458" y="11.8421" width="1.38889" height="1.31579" fill="#27D6FF"/>
<rect x="4.1665" y="19.7368" width="1.38889" height="1.31579" fill="#3C3E95"/>
<rect x="18.0554" y="19.7368" width="1.38889" height="1.31579" fill="#3C3E95"/>
<rect x="15.2775" y="19.7368" width="1.38889" height="1.31579" fill="#3C3E95"/>
<rect x="12.5" y="19.7368" width="1.38889" height="1.31579" fill="#3C3E95"/>
<rect x="9.72205" y="19.7368" width="1.38889" height="1.31579" fill="#3C3E95"/>
<rect x="6.94458" y="19.7368" width="1.38889" height="1.31579" fill="#3C3E95"/>
<rect x="4.1665" y="14.4737" width="1.38889" height="1.31579" fill="#3C3E95"/>
<rect x="18.0554" y="14.4737" width="1.38889" height="1.31579" fill="#3C3E95"/>
<rect x="15.2775" y="14.4737" width="1.38889" height="1.31579" fill="#3C3E95"/>
<rect x="12.5" y="14.4737" width="1.38889" height="1.31579" fill="#3C3E95"/>
<rect x="9.72205" y="14.4737" width="1.38889" height="1.31579" fill="#3C3E95"/>
<rect x="6.94458" y="14.4737" width="1.38889" height="1.31579" fill="#3C3E95"/>
<rect x="4.1665" y="17.1053" width="1.38889" height="1.31579" fill="#3C3E95"/>
<rect x="18.0554" y="17.1053" width="1.38889" height="1.31579" fill="#3C3E95"/>
<rect x="15.2775" y="17.1053" width="1.38889" height="1.31579" fill="#3C3E95"/>
<rect x="12.5" y="17.1053" width="1.38889" height="1.31579" fill="#3C3E95"/>
<rect x="9.72205" y="17.1053" width="1.38889" height="1.31579" fill="#3C3E95"/>
<rect x="6.94458" y="17.1053" width="1.38889" height="1.31579" fill="#3C3E95"/>
<line x1="7.44458" y1="-1.96701e-08" x2="7.44458" y2="5.26316" stroke="#3C3E95"/>
<line x1="18.5554" y1="-1.96701e-08" x2="18.5554" y2="5.26316" stroke="#3C3E95"/>
</svg>
