<svg width="25" height="28" viewBox="0 0 25 28" fill="none" xmlns="http://www.w3.org/2000/svg">
<path d="M21.5 20.5C14.7188 24.4889 9.39145 22.1795 8.03972 20.018C8.03214 20.0059 8.02756 19.9921 8.02587 19.9779C7.64654 16.7963 11.5332 16 13.5286 16C18.6952 16.1667 28.3 16.5 21.5 20.5Z" fill="#27D6FF"/>
<mask id="path-2-inside-1_536_51" fill="white">
<path fill-rule="evenodd" clip-rule="evenodd" d="M23.7823 18.5613C18.7364 19.8622 13.3234 17.4257 11.0467 12.5309C9.35588 8.89594 9.81629 4.8116 11.9041 1.7127C11.2594 1.87892 10.6207 2.10614 9.99525 2.39705C4.47503 4.96474 2.08152 11.5213 4.64921 17.0415C7.21689 22.5617 13.7734 24.9552 19.2937 22.3875C21.1789 21.5106 22.6995 20.1685 23.7823 18.5613Z"/>
</mask>
<path fill-rule="evenodd" clip-rule="evenodd" d="M23.7823 18.5613C18.7364 19.8622 13.3234 17.4257 11.0467 12.5309C9.35588 8.89594 9.81629 4.8116 11.9041 1.7127C11.2594 1.87892 10.6207 2.10614 9.99525 2.39705C4.47503 4.96474 2.08152 11.5213 4.64921 17.0415C7.21689 22.5617 13.7734 24.9552 19.2937 22.3875C21.1789 21.5106 22.6995 20.1685 23.7823 18.5613Z" fill="white"/>
<path d="M23.7823 18.5613L24.6116 19.1201L26.0835 16.9353L23.5326 17.593L23.7823 18.5613ZM11.9041 1.7127L12.7334 2.27145L14.2053 0.0867257L11.6545 0.744366L11.9041 1.7127ZM23.5326 17.593C18.9451 18.7757 14.0232 16.559 11.9534 12.1092L10.14 12.9527C12.6237 18.2925 18.5278 20.9487 24.0319 19.5297L23.5326 17.593ZM11.9534 12.1092C10.4165 8.80501 10.8333 5.09176 12.7334 2.27145L11.0748 1.15396C8.79926 4.53144 8.29529 8.98687 10.14 12.9527L11.9534 12.1092ZM10.417 3.30376C10.9868 3.03873 11.5679 2.83208 12.1537 2.68104L11.6545 0.744366C10.9509 0.92575 10.2545 1.17355 9.5735 1.49034L10.417 3.30376ZM5.55592 16.6198C3.22116 11.6003 5.39754 5.63852 10.417 3.30376L9.5735 1.49034C3.55251 4.29095 0.941883 11.4423 3.7425 17.4633L5.55592 16.6198ZM18.8719 21.4808C13.8525 23.8156 7.89068 21.6392 5.55592 16.6198L3.7425 17.4633C6.54311 23.4842 13.6944 26.0949 19.7154 23.2943L18.8719 21.4808ZM22.9529 18.0026C21.9689 19.4631 20.5876 20.6828 18.8719 21.4808L19.7154 23.2943C21.7702 22.3385 23.43 20.8739 24.6116 19.1201L22.9529 18.0026Z" fill="#3C3E95" mask="url(#path-2-inside-1_536_51)"/>
<path d="M14 11.298L16.6568 10.7022C16.7466 10.6821 16.8136 10.7835 16.7599 10.8582L14.7343 13.6742C14.6806 13.7489 14.7476 13.8503 14.8374 13.8302L17.4942 13.2344" stroke="#27D6FF" stroke-width="0.8" stroke-linecap="round"/>
<path d="M16.6541 6.65344L19.3109 6.05768C19.4006 6.03757 19.4676 6.13901 19.4139 6.21365L17.3884 9.02968C17.3347 9.10432 17.4017 9.20577 17.4914 9.18565L20.1482 8.5899" stroke="#27D6FF" stroke-width="0.8" stroke-linecap="round"/>
</svg>
