<svg width="21" height="21" viewBox="0 0 21 21" fill="none" xmlns="http://www.w3.org/2000/svg">
<path d="M14.2325 5.85566C14.2325 8.26661 12.3017 10.2113 9.93181 10.2113C7.56195 10.2113 5.6311 8.26661 5.6311 5.85566C5.6311 3.44472 7.56195 1.5 9.93181 1.5C12.3017 1.5 14.2325 3.44472 14.2325 5.85566Z" fill="white" stroke="#3C3E95"/>
<path d="M17.4171 15.8188L17.4183 15.8333L17.4203 15.8477C17.4562 16.1021 17.5198 16.6217 17.5198 16.8333V18.0847C17.504 18.3191 17.4136 18.6795 17.203 18.9748C17.0039 19.2541 16.696 19.4824 16.1853 19.5H3.78418C3.47462 19.4855 2.67786 19.2214 2.5 18.0634V16.4782C2.54162 15.7798 2.8247 14.73 3.5293 13.8785C4.20496 13.0619 5.29211 12.3962 7.03096 12.4218C8.10472 12.9927 10.6538 13.6768 13.0791 12.3993C13.7613 12.2689 15.4714 12.3738 16.9754 14.5742C17.0306 14.663 17.1342 14.8689 17.2307 15.1203C17.3302 15.3796 17.402 15.6356 17.4171 15.8188Z" fill="#27D6FF" stroke="#3C3E95" stroke-linecap="round"/>
</svg>
