<svg width="170" height="45" viewBox="0 0 170 45" fill="none" xmlns="http://www.w3.org/2000/svg">
<path d="M20.7 33H15.57L6.99 20.01V33H1.86V11.94H6.99L15.57 24.99V11.94H20.7V33ZM30.7786 16.02C31.9586 16.02 32.9886 16.26 33.8686 16.74C34.7686 17.22 35.4586 17.85 35.9386 18.63V16.26H41.0686V32.97C41.0686 34.51 40.7586 35.9 40.1386 37.14C39.5386 38.4 38.6086 39.4 37.3486 40.14C36.1086 40.88 34.5586 41.25 32.6986 41.25C30.2186 41.25 28.2086 40.66 26.6686 39.48C25.1286 38.32 24.2486 36.74 24.0286 34.74H29.0986C29.2586 35.38 29.6386 35.88 30.2386 36.24C30.8386 36.62 31.5786 36.81 32.4586 36.81C33.5186 36.81 34.3586 36.5 34.9786 35.88C35.6186 35.28 35.9386 34.31 35.9386 32.97V30.6C35.4386 31.38 34.7486 32.02 33.8686 32.52C32.9886 33 31.9586 33.24 30.7786 33.24C29.3986 33.24 28.1486 32.89 27.0286 32.19C25.9086 31.47 25.0186 30.46 24.3586 29.16C23.7186 27.84 23.3986 26.32 23.3986 24.6C23.3986 22.88 23.7186 21.37 24.3586 20.07C25.0186 18.77 25.9086 17.77 27.0286 17.07C28.1486 16.37 29.3986 16.02 30.7786 16.02ZM35.9386 24.63C35.9386 23.35 35.5786 22.34 34.8586 21.6C34.1586 20.86 33.2986 20.49 32.2786 20.49C31.2586 20.49 30.3886 20.86 29.6686 21.6C28.9686 22.32 28.6186 23.32 28.6186 24.6C28.6186 25.88 28.9686 26.9 29.6686 27.66C30.3886 28.4 31.2586 28.77 32.2786 28.77C33.2986 28.77 34.1586 28.4 34.8586 27.66C35.5786 26.92 35.9386 25.91 35.9386 24.63ZM47.3599 14.52C46.4599 14.52 45.7199 14.26 45.1399 13.74C44.5799 13.2 44.2999 12.54 44.2999 11.76C44.2999 10.96 44.5799 10.3 45.1399 9.78C45.7199 9.24 46.4599 8.97 47.3599 8.97C48.2399 8.97 48.9599 9.24 49.5199 9.78C50.0999 10.3 50.3899 10.96 50.3899 11.76C50.3899 12.54 50.0999 13.2 49.5199 13.74C48.9599 14.26 48.2399 14.52 47.3599 14.52ZM49.9099 16.26V33H44.7799V16.26H49.9099ZM63.8276 16.08C65.7876 16.08 67.3476 16.72 68.5076 18C69.6876 19.26 70.2776 21 70.2776 23.22V33H65.1776V23.91C65.1776 22.79 64.8876 21.92 64.3076 21.3C63.7276 20.68 62.9476 20.37 61.9676 20.37C60.9876 20.37 60.2076 20.68 59.6276 21.3C59.0476 21.92 58.7576 22.79 58.7576 23.91V33H53.6276V16.26H58.7576V18.48C59.2776 17.74 59.9776 17.16 60.8576 16.74C61.7376 16.3 62.7276 16.08 63.8276 16.08ZM89.6224 24.36C89.6224 24.84 89.5924 25.34 89.5324 25.86H77.9224C78.0024 26.9 78.3324 27.7 78.9124 28.26C79.5124 28.8 80.2424 29.07 81.1024 29.07C82.3824 29.07 83.2724 28.53 83.7724 27.45H89.2324C88.9524 28.55 88.4424 29.54 87.7024 30.42C86.9824 31.3 86.0724 31.99 84.9724 32.49C83.8724 32.99 82.6424 33.24 81.2824 33.24C79.6424 33.24 78.1824 32.89 76.9024 32.19C75.6224 31.49 74.6224 30.49 73.9024 29.19C73.1824 27.89 72.8224 26.37 72.8224 24.63C72.8224 22.89 73.1724 21.37 73.8724 20.07C74.5924 18.77 75.5924 17.77 76.8724 17.07C78.1524 16.37 79.6224 16.02 81.2824 16.02C82.9024 16.02 84.3424 16.36 85.6024 17.04C86.8624 17.72 87.8424 18.69 88.5424 19.95C89.2624 21.21 89.6224 22.68 89.6224 24.36ZM84.3724 23.01C84.3724 22.13 84.0724 21.43 83.4724 20.91C82.8724 20.39 82.1224 20.13 81.2224 20.13C80.3624 20.13 79.6324 20.38 79.0324 20.88C78.4524 21.38 78.0924 22.09 77.9524 23.01H84.3724ZM97.4588 18.63C97.9588 17.85 98.6488 17.22 99.5288 16.74C100.409 16.26 101.439 16.02 102.619 16.02C103.999 16.02 105.249 16.37 106.369 17.07C107.489 17.77 108.369 18.77 109.009 20.07C109.669 21.37 109.999 22.88 109.999 24.6C109.999 26.32 109.669 27.84 109.009 29.16C108.369 30.46 107.489 31.47 106.369 32.19C105.249 32.89 103.999 33.24 102.619 33.24C101.459 33.24 100.429 33 99.5288 32.52C98.6488 32.04 97.9588 31.42 97.4588 30.66V40.98H92.3288V16.26H97.4588V18.63ZM104.779 24.6C104.779 23.32 104.419 22.32 103.699 21.6C102.999 20.86 102.129 20.49 101.089 20.49C100.069 20.49 99.1988 20.86 98.4788 21.6C97.7788 22.34 97.4288 23.35 97.4288 24.63C97.4288 25.91 97.7788 26.92 98.4788 27.66C99.1988 28.4 100.069 28.77 101.089 28.77C102.109 28.77 102.979 28.4 103.699 27.66C104.419 26.9 104.779 25.88 104.779 24.6Z" fill="#3C3E95"/>
<path d="M130.75 11.94L123.46 26.04V33H118.33V26.04L111.04 11.94H116.86L120.94 20.76L124.99 11.94H130.75ZM149.347 16.26V33H144.217V30.72C143.697 31.46 142.987 32.06 142.087 32.52C141.207 32.96 140.227 33.18 139.147 33.18C137.867 33.18 136.737 32.9 135.757 32.34C134.777 31.76 134.017 30.93 133.477 29.85C132.937 28.77 132.667 27.5 132.667 26.04V16.26H137.767V25.35C137.767 26.47 138.057 27.34 138.637 27.96C139.217 28.58 139.997 28.89 140.977 28.89C141.977 28.89 142.767 28.58 143.347 27.96C143.927 27.34 144.217 26.47 144.217 25.35V16.26H149.347ZM163.262 33L158.162 25.98V33H153.032V10.8H158.162V23.07L163.232 16.26H169.562L162.602 24.66L169.622 33H163.262Z" fill="black"/>
</svg>
