<svg width="63" height="20" viewBox="0 0 63 20" fill="none" xmlns="http://www.w3.org/2000/svg">
<g clip-path="url(#clip0_666_295)">
<path d="M0.0666755 13.7458C0.0666755 12.7525 0.0492658 11.9192 0 11.1758H1.72764L1.80876 12.4519H1.85691C2.2477 11.7774 2.96521 10.9796 4.30094 10.9796C5.34367 10.9796 6.15785 11.6203 6.49975 12.576H6.53309C6.81127 12.0969 7.1365 11.744 7.51025 11.4949C7.94994 11.1585 8.45556 10.9796 9.10824 10.9796C10.4262 10.9796 11.7608 11.9547 11.7608 14.7209V19.8057H9.80648V15.0384C9.80648 13.6035 9.35087 12.7525 8.39111 12.7525C7.70546 12.7525 7.19947 13.2848 6.98907 13.9054C6.94018 14.1177 6.89091 14.3832 6.89091 14.6302V19.8057H4.93547V14.8084C4.93547 13.6035 4.49615 12.7525 3.56788 12.7525C2.81815 12.7525 2.31401 13.3904 2.13473 13.992C2.0536 14.2064 2.01916 14.4538 2.01916 14.702V19.8057H0.0666755V13.7458Z" fill="#003A70"/>
<path d="M17.4217 15.5894C16.0041 15.5531 14.6528 15.8888 14.6528 17.2011C14.6528 18.0506 15.1581 18.4418 15.7933 18.4418C16.5901 18.4418 17.178 17.8749 17.3554 17.2547C17.4047 17.0956 17.4217 16.9175 17.4217 16.7764V15.5894ZM19.376 17.733C19.376 18.5123 19.409 19.2715 19.4912 19.8058H17.6825L17.5525 18.8484H17.5017C17.0139 19.5221 16.1834 20 15.1581 20C13.5608 20 12.6655 18.7444 12.6655 17.4304C12.6655 15.2509 14.4398 14.1533 17.3724 14.1706V14.0288C17.3724 13.4614 17.1602 12.5222 15.7608 12.5222C14.9781 12.5222 14.1624 12.7893 13.626 13.1612L13.2345 11.7441C13.8209 11.3528 14.848 10.9797 16.1023 10.9797C18.6437 10.9797 19.376 12.7357 19.376 14.6134V17.733Z" fill="#003A70"/>
<path d="M20.7621 13.7458C20.7621 12.7525 20.7439 11.9192 20.6965 11.1758H22.4542L22.5523 12.4693H22.6005C22.9424 11.7971 23.8069 10.9796 25.1253 10.9796C26.5114 10.9796 27.9445 11.9547 27.9445 14.6838V19.8057H25.9402V14.9329C25.9402 13.6922 25.5164 12.7525 24.4255 12.7525C23.6273 12.7525 23.0746 13.3719 22.8616 14.0283C22.7979 14.2241 22.7805 14.4904 22.7805 14.7358V19.8057H20.7621V13.7458Z" fill="#003A70"/>
<path d="M34.6273 14.7722C34.6273 14.5961 34.6107 14.3834 34.5788 14.2061C34.3992 13.3555 33.7646 12.6648 32.8519 12.6648C31.5651 12.6648 30.8487 13.9059 30.8487 15.5181C30.8487 17.0952 31.5651 18.2484 32.8364 18.2484C33.6498 18.2484 34.3673 17.6452 34.5621 16.7059C34.6107 16.5105 34.6273 16.2961 34.6273 16.0661V14.7722ZM36.6306 7.70859V17.3776C36.6306 18.2633 36.6639 19.2211 36.6958 19.805H34.904L34.824 18.4418H34.7907C34.3184 19.3972 33.355 20 32.2 20C30.3108 20 28.8118 18.2484 28.8118 15.5894C28.7958 12.6999 30.4579 10.9797 32.3637 10.9797C33.4542 10.9797 34.2369 11.4765 34.5947 12.1168H34.6273V7.70859H36.6306Z" fill="#003A70"/>
<path d="M38.0471 11.1756H40.07V19.8047H38.0471V11.1756Z" fill="#003A70"/>
<path d="M41.4846 13.958C41.4846 12.7886 41.4683 11.9545 41.4191 11.176H43.1626L43.2271 12.8225H43.2934C43.6838 11.5999 44.6128 11.176 45.46 11.176C45.6552 11.176 45.7693 11.1394 45.9323 11.176V13.0904C45.7693 13.0542 45.5904 13.0187 45.3448 13.0187C44.3846 13.0187 43.7331 13.6916 43.5545 14.6659C43.5219 14.8606 43.4897 15.0927 43.4897 15.3417V19.8047H41.4846V13.958Z" fill="#003A70"/>
<path d="M46.8608 11.1756H48.8796V19.8047H46.8608V11.1756Z" fill="#003A70"/>
<path fill-rule="evenodd" clip-rule="evenodd" d="M61.3444 2.06014C60.3476 0.825113 59.2897 1.38279 58.4452 1.83812C58.0914 2.0283 56.8072 2.9583 55.5344 3.60664C54.6276 4.06881 53.326 3.92899 52.6122 2.96999C52.5688 2.91196 51.415 1.39125 51.2927 1.20388C50.5434 0.181611 48.6479 -0.666183 46.3832 0.743719C45.1697 1.5077 42.3101 3.29274 41.241 3.9568C40.5913 4.31743 39.083 4.47498 38.231 3.22303C38.2169 3.20248 37.0975 1.68298 37.0527 1.62455C37.0197 1.58345 36.2967 0.41693 34.685 0.381068C34.4479 0.374621 33.264 0.366965 32.1072 1.08139C30.5733 2.03596 27.0032 4.25618 27.0032 4.25618C27.0006 4.25618 27.0006 4.2582 27.0006 4.2582C25.533 5.17208 24.3884 5.88166 24.3884 5.88166L25.7397 7.68846C26.3724 8.54149 27.797 9.20273 29.0335 8.43069C29.0335 8.43069 33.6008 5.55366 33.6167 5.5456C35.5925 4.36619 37.1171 4.36619 38.1273 4.8054C39.0359 5.22164 39.8257 6.26123 39.8257 6.26123C39.8257 6.26123 40.8588 7.65381 41.0403 7.89719C41.6277 8.68373 42.5994 8.37508 42.5994 8.37508C42.5994 8.37508 42.9583 8.32995 43.5035 7.97939C43.5035 7.97939 47.9264 5.1898 47.9289 5.189C49.3343 4.29245 50.6234 4.12523 51.2809 4.1905C53.343 4.3948 53.9842 5.96185 54.8791 7.05463C55.4055 7.69894 55.88 8.0632 56.6064 8.04466C57.0846 8.03298 57.6236 7.71909 57.7032 7.66267L63.0002 4.33637C63.0002 4.33637 62.4575 3.44667 61.3444 2.06014Z" fill="#FFB700"/>
</g>
<defs>
<clipPath id="clip0_666_295">
<rect width="63" height="20" fill="white"/>
</clipPath>
</defs>
</svg>
