<svg width="34" height="20" viewBox="0 0 34 20" fill="none" xmlns="http://www.w3.org/2000/svg">
<g clip-path="url(#clip0_659_5067)">
<path fill-rule="evenodd" clip-rule="evenodd" d="M12.2761 17.836H21.376V2.13477H12.2761V17.836Z" fill="#FF5F00"/>
<path fill-rule="evenodd" clip-rule="evenodd" d="M12.8541 9.98559C12.8541 6.80019 14.4075 3.96317 16.8263 2.13497C15.0572 0.797738 12.8253 0 10.3992 0C4.6559 0 0.000244141 4.47077 0.000244141 9.98559C0.000244141 15.5004 4.6559 19.9712 10.3992 19.9712C12.8253 19.9712 15.0572 19.1734 16.8263 17.8362C14.4075 16.0077 12.8541 13.171 12.8541 9.98559Z" fill="#EB001B"/>
<path fill-rule="evenodd" clip-rule="evenodd" d="M33.3275 16.1733V15.7858H33.2221L33.101 16.0524L32.9797 15.7858H32.8743V16.1733H32.9485V15.881L33.0623 16.1331H33.1395L33.2533 15.8804V16.1733H33.3275ZM32.6599 16.1733V15.8519H32.7951V15.7864H32.4513V15.8519H32.5862V16.1733H32.6599ZM33.6522 9.98559C33.6522 15.5004 28.9963 19.9712 23.2533 19.9712C20.8272 19.9712 18.595 19.1734 16.8262 17.8362C19.245 16.008 20.7983 13.171 20.7983 9.98559C20.7983 6.80047 19.245 3.96345 16.8262 2.13497C18.595 0.797738 20.8272 0 23.2533 0C28.9963 0 33.6522 4.47077 33.6522 9.98559Z" fill="#F79E1B"/>
</g>
<defs>
<clipPath id="clip0_659_5067">
<rect width="34" height="20" fill="white"/>
</clipPath>
</defs>
</svg>
