<svg width="330" height="402" viewBox="0 0 330 402" fill="none" xmlns="http://www.w3.org/2000/svg">
<path d="M257.576 172.754C245.171 173.928 241.791 184.663 241.651 189.883C221.2 164.825 207.986 183.358 203.935 195.756C196.56 195.756 195.274 203.913 195.554 207.991C190.106 210.438 156.999 213.864 185.077 221.694C220.995 231.711 261.767 227.567 294.873 228.057C327.979 228.546 331.332 215.821 329.655 209.949C327.979 204.076 309.54 213.864 310.797 200.65C311.803 190.079 293.616 192.982 284.396 195.756C285.933 193.798 288.084 189.198 284.396 186.457C280.708 183.716 275.596 187.599 273.5 189.883C273.361 183.684 269.98 171.579 257.576 172.754Z" fill="#ECF2FF"/>
<path d="M234.649 377.247C234.649 390.243 199.923 400.778 157.085 400.778C114.247 400.778 79.5205 390.243 79.5205 377.247C79.5205 364.252 114.247 353.717 157.085 353.717C199.923 353.717 234.649 364.252 234.649 377.247Z" fill="#ECF2FF"/>
<path d="M81.7887 237.655C91.978 238.611 94.7549 247.348 94.8696 251.597C111.668 231.201 122.523 246.286 125.85 256.377C131.909 256.377 132.965 263.016 132.735 266.336C137.21 268.328 164.406 271.116 141.342 277.49C111.837 285.643 78.3463 282.27 51.1518 282.669C23.9573 283.067 21.2035 272.71 22.5804 267.93C23.9574 263.149 39.1037 271.116 38.071 260.361C37.2448 251.756 52.1845 254.12 59.7577 256.377C58.4955 254.784 56.7284 251.039 59.7577 248.809C62.7869 246.578 66.9866 249.738 68.7078 251.597C68.8225 246.551 71.5994 236.699 81.7887 237.655Z" fill="#ECF2FF"/>
<path d="M95.0103 0.0907808C80.9224 1.42925 77.0831 13.6614 76.9245 19.6101C53.6983 -8.9438 38.6907 12.1741 34.0901 26.3024C25.7135 26.3024 24.2538 35.5973 24.571 40.2448C18.3837 43.0332 -19.2166 46.9371 12.672 55.8602C53.4646 67.2749 99.7697 62.5526 137.369 63.1103C174.968 63.668 178.776 49.1679 176.872 42.4755C174.968 35.7832 154.027 46.9371 155.455 31.8793C156.597 19.8331 135.941 23.1421 125.471 26.3024C127.216 24.0716 129.659 18.8293 125.471 15.7062C121.282 12.583 115.476 17.0075 113.096 19.6101C112.937 12.546 109.098 -1.24769 95.0103 0.0907808Z" fill="#ECF2FF"/>
<path d="M199.912 106.731C199.912 157.037 164.893 197.817 121.696 197.817C78.4981 197.817 43.4795 157.037 43.4795 106.731C43.4795 56.426 78.4981 15.6455 121.696 15.6455C164.893 15.6455 199.912 56.426 199.912 106.731Z" fill="#FFA502"/>
<path d="M145.723 354.638L154.48 255.404L134.058 254.343L132.312 351.117C131.549 351.03 129.735 353.006 128.577 361.607C127.131 372.357 143.456 366.165 149.564 374.297C158.329 375.85 163.946 373.799 153.508 367.073C145.157 361.692 147.556 358.696 145.723 354.638Z" fill="#FF8C6E"/>
<path d="M122.018 261.434L127.095 168.677L137.691 158.969L164.272 195.061L160.332 261.37C149.762 266.873 130.386 263.705 122.018 261.434Z" fill="#2034A6"/>
<path d="M150.743 357.811C151.11 356.205 151.283 353.773 149.793 353.381C147.666 352.821 141.149 353.419 140.351 354.75C139.713 355.815 139.704 357.611 139.779 358.375L128.368 356.453C127.681 357.942 126.602 362.03 127.783 366.47C129.26 372.02 129.566 372.948 130.643 373C130.803 373.008 131.805 373.178 133.4 373.448C142.533 374.993 171.096 379.826 172.217 376.381C172.382 375.876 172.536 375.344 172.675 374.796C173.643 370.96 173.798 366.312 170.78 363.984C169.833 363.254 168.776 362.461 167.555 361.702C163.889 359.428 158.738 357.466 150.578 358.441C150.634 358.254 150.691 358.041 150.743 357.811Z" fill="#213ACF"/>
<path d="M139.754 357.263L139.966 357.125L143.988 365.702L154.949 366.656C155.063 365.16 155.298 363.203 155.684 361.529C155.906 360.566 156.189 359.65 156.551 358.966C156.679 358.722 156.834 358.481 157.015 358.275C157.4 358.305 157.776 358.344 158.144 358.389L158.108 358.997C158 358.992 157.788 359.074 157.498 359.623C157.222 360.144 156.974 360.915 156.762 361.833C156.341 363.659 156.104 365.885 156.017 367.378L155.978 368.048L143.285 366.944L139.223 358.282L139.779 358.375C139.752 358.106 139.736 357.71 139.754 357.263Z" fill="white"/>
<path d="M128.23 368.139L162.139 372.908L162.366 369.028L162.369 369.001C162.91 364.858 164.429 362.7 166.249 361.818C166.56 361.667 166.875 361.557 167.189 361.48C167.85 361.875 168.464 362.283 169.038 362.689C168.274 362.573 167.438 362.634 166.656 363.013C165.322 363.659 163.981 365.313 163.477 369.136L163.171 374.363L128.608 369.502C128.492 369.095 128.367 368.643 128.23 368.139Z" fill="white"/>
<path d="M155.275 358.19L155.262 358.403C155.295 358.405 155.316 358.398 155.321 358.396C155.322 358.395 155.322 358.395 155.322 358.395" fill="white"/>
<path d="M153.941 358.194C154.396 358.183 154.841 358.182 155.275 358.19L153.941 358.194Z" fill="white"/>
<path d="M153.941 358.194C153.74 358.483 153.526 358.824 153.299 359.203C152.992 359.714 152.647 360.32 152.26 360.998L152.077 361.319C151.614 362.13 151.091 363.041 150.496 364.033L151.407 364.755C152.009 363.75 152.538 362.829 153.003 362.015L153.187 361.693C153.574 361.014 153.912 360.422 154.21 359.925C154.557 359.346 154.832 358.926 155.053 358.658C155.163 358.524 155.242 358.451 155.292 358.414C155.308 358.403 155.318 358.397 155.321 358.396" fill="white"/>
<path d="M151.912 358.305C151.696 358.391 151.418 358.558 151.082 358.82C150.632 359.17 150.131 359.647 149.614 360.196C148.583 361.291 147.53 362.625 146.756 363.672L145.917 362.843C146.707 361.774 147.793 360.396 148.873 359.249C149.412 358.677 149.96 358.151 150.477 357.749C150.586 357.664 150.697 357.582 150.808 357.506C150.739 357.853 150.658 358.173 150.578 358.441C151.032 358.387 151.476 358.342 151.912 358.305Z" fill="white"/>
<path d="M205.649 260.904C205.057 249.221 199.476 247.296 198.358 246.003L188.281 231.762L166.532 228.603L183.937 270.728C176.015 293.697 166.599 347.89 161.876 350.663C161.883 353.013 160.206 351.302 161.901 359.085C163.859 362.873 195.385 371.886 195.385 371.886C195.385 371.886 198.076 377.068 199.844 371.868C201.613 366.667 197.597 366.034 197.597 366.034C192.004 359.565 177.522 363.583 173.603 357.757C183.928 330.451 206.122 270.25 205.649 260.904Z" fill="#FF8C6E"/>
<path d="M184.959 356.005C185.896 354.851 187.422 352.238 186.028 351.016C184.285 349.488 178.132 346.917 176.935 347.749C176.815 347.832 176.701 347.931 176.591 348.041C175.824 348.809 175.311 350.139 175.136 350.781L165.409 343.572C164.257 344.601 161.832 347.812 161.343 352.425C161.305 352.786 161.269 353.128 161.236 353.452C160.731 358.315 160.745 359.22 161.648 359.747C161.791 359.831 162.646 360.465 164.004 361.474C164.977 362.196 166.209 363.11 167.623 364.151C177.526 371.443 196.407 384.989 198.363 382.711C200.99 379.651 203.632 374.794 201.425 370.72C198.999 366.242 195.337 360.022 184.959 356.005Z" fill="#213ACF"/>
<path d="M175.505 349.755L175.746 349.73L176.389 359.475L186.047 365.585C186.679 364.276 187.583 362.604 188.525 361.262C189.067 360.491 189.648 359.791 190.219 359.34C190.422 359.179 190.648 359.032 190.887 358.931C191.227 359.144 191.556 359.358 191.875 359.575L191.628 360.113C191.532 360.057 191.31 360.03 190.851 360.392C190.416 360.735 189.918 361.319 189.401 362.056C188.373 363.519 187.372 365.435 186.766 366.755L186.494 367.347L175.311 360.271L174.661 350.429L175.135 350.781C175.206 350.523 175.331 350.154 175.505 349.755Z" fill="white"/>
<path d="M161.162 354.162L190.399 374.724L191.973 371.295L191.986 371.272C193.94 367.753 196.086 366.512 198.056 366.578C198.393 366.589 198.72 366.639 199.033 366.719C199.497 367.396 199.913 368.061 200.294 368.706C199.638 368.235 198.853 367.89 198.006 367.862C196.562 367.813 194.756 368.68 192.948 371.925L190.827 376.545L161.026 355.585C161.064 355.159 161.11 354.686 161.162 354.162Z" fill="white"/>
<path d="M189.329 358.022L189.243 358.211C189.272 358.228 189.293 358.231 189.299 358.232C189.3 358.232 189.3 358.232 189.3 358.232" fill="white"/>
<path d="M188.112 357.388C188.531 357.596 188.936 357.807 189.329 358.022L188.112 357.388Z" fill="white"/>
<path d="M188.112 357.388C187.827 357.555 187.512 357.764 187.17 358.001C186.711 358.321 186.182 358.708 185.59 359.141L185.31 359.346C184.602 359.864 183.804 360.445 182.912 361.065L183.488 362.158C184.391 361.53 185.198 360.943 185.909 360.424L186.19 360.218C186.783 359.783 187.299 359.406 187.746 359.095C188.267 358.733 188.666 358.482 188.962 358.343C189.109 358.274 189.207 358.244 189.266 358.235C189.285 358.232 189.295 358.232 189.299 358.232" fill="white"/>
<path d="M186.223 356.519C185.996 356.495 185.683 356.514 185.284 356.591C184.75 356.696 184.125 356.891 183.461 357.144C182.134 357.65 180.704 358.363 179.629 358.947L179.156 357.79C180.253 357.193 181.73 356.456 183.118 355.927C183.812 355.663 184.497 355.445 185.11 355.326C185.24 355.3 185.369 355.279 185.498 355.262C185.313 355.546 185.126 355.799 184.959 356.005C185.392 356.173 185.813 356.344 186.223 356.519Z" fill="white"/>
<path fill-rule="evenodd" clip-rule="evenodd" d="M141.824 167.681L168.875 266.893C180.377 260.788 204.5 249.612 208.971 253.749L175.27 167.547L141.824 167.681Z" fill="#213ACF"/>
<path d="M185.075 192.625L195.286 218.742C194.229 221.636 190.697 226.056 183.244 224.64C175.212 223.115 169.811 206.301 168.114 198.086L185.075 192.625Z" fill="#1A2FB0"/>
<path d="M233.007 128.597L265.896 69.5245C257.72 67.7934 239.808 61.2153 235.794 53.9448L210.71 122.106C214.612 122.322 225.872 123.404 233.007 128.597Z" fill="#F8F0D7"/>
<path d="M232.449 63.0317L233.006 61.6702C234.307 61.6702 237.02 62.0597 237.466 63.6176C237.652 64.2668 237.652 64.7717 237.652 65.2285C237.652 66.1421 237.652 66.8634 239.138 68.1617C239.791 68.7321 240.396 69.1354 240.898 69.4696C242.108 70.2762 242.713 70.6795 241.925 72.0566C240.81 74.0041 239.696 76.4088 239.696 83.0922C239.696 87.0484 237.905 88.6686 235.709 89.2987C236.031 90.6712 234.898 91.6576 233.873 92.5495C233.009 93.301 232.222 93.9853 232.449 94.777C233.006 96.7244 231.891 99.9702 230.777 102.567C229.96 104.468 229.144 104.281 228.109 104.045C227.731 103.958 227.323 103.865 226.874 103.865C225.202 103.865 222.972 101.918 224.087 99.9702C224.979 98.4122 222.229 96.2916 220.743 95.4261L220.95 94.2781L225.966 80.6492C226.527 81.0758 227.218 81.6719 227.824 82.3293C227.77 81.4492 227.763 80.4053 227.755 79.3913C227.745 78.123 227.736 76.9011 227.638 76.1047L232.449 63.0317Z" fill="#F4E5B4"/>
<path d="M219.628 108.409C218.141 108.409 215.28 109.058 215.726 111.655C215.924 112.807 215.7 114.04 215.504 115.124C215.148 117.093 214.881 118.565 217.398 118.146C219.296 117.831 220.007 117.208 220.557 116.726C221.139 116.217 221.54 115.865 222.972 116.199C225.76 116.848 227.432 114.252 226.874 112.304C226.317 110.357 226.317 110.356 225.202 109.058C224.645 108.409 224.924 108.085 225.202 107.76C225.481 107.435 225.76 107.111 225.202 106.462C224.31 105.423 221.114 107.327 219.628 108.409Z" fill="#F4E5B4"/>
<path d="M248.057 77.2498C248.949 76.2112 250.287 76.8171 250.844 77.2498C251.216 77.6826 252.293 78.678 253.631 79.1973C255.304 79.8464 254.189 81.1447 253.074 82.4431C251.959 83.7414 250.844 81.1447 250.287 79.8464C250.008 79.1973 249.59 79.5219 249.172 79.8464C248.754 80.171 248.336 80.4956 248.057 79.8464C247.927 79.5447 247.798 79.3131 247.689 79.119C247.331 78.478 247.201 78.2464 248.057 77.2498Z" fill="#F4E5B4"/>
<path d="M236.351 92.8295C235.793 92.8295 234.679 94.1278 235.236 94.777C235.428 95.001 235.687 95.0704 235.967 95.1453C236.497 95.2873 237.101 95.4492 237.466 96.7244C238.023 98.6719 240.253 98.6719 240.253 96.7244C240.253 96.2376 240.288 95.9131 240.314 95.6697C240.337 95.4539 240.353 95.3018 240.332 95.157C240.283 94.8118 240.022 94.5079 239.138 93.4791C237.801 91.9212 236.722 92.3967 236.351 92.8295Z" fill="#F4E5B4"/>
<path d="M235.793 53.9458L207.922 53.2966L190.084 107.825C191.199 111.288 196.996 118.731 211.266 120.809L235.793 53.9458Z" fill="#F0E3BA"/>
<path d="M190.095 107.794L195.202 92.1802C198.209 92.1918 204.137 92.7226 204.577 94.7766C204.828 95.9414 204.517 96.7143 204.199 97.5055C203.808 98.4781 203.405 99.4783 204.02 101.268C204.489 102.632 205.449 103.423 206.24 104.074C207.332 104.972 208.1 105.605 206.807 107.11C206.112 107.92 205.796 108.603 205.539 109.16C204.97 110.39 204.686 111.005 201.233 111.005C198.696 111.005 198.012 110.009 197.451 109.193C196.903 108.394 196.472 107.767 194.544 108.409C191.476 109.43 190.31 108.444 190.095 107.794Z" fill="#EBD9A0"/>
<path d="M225.987 80.6805L220.671 95.1714C220.18 94.7207 219.511 94.1419 218.514 93.4783C217.05 92.5045 216.214 91.7134 215.535 91.0706C214.402 89.9992 213.706 89.3399 211.267 88.9342C209.105 88.5746 208.483 89.211 208.074 89.6296C207.745 89.9666 207.553 90.1624 206.808 89.5833C205.47 88.5447 206.622 86.9867 207.365 86.3376V85.0393C206.436 83.741 204.355 80.4952 203.463 77.8986C202.348 74.6529 205.135 72.7054 207.922 71.4071L208.232 71.2622C210.99 69.9732 214.611 68.2801 214.611 71.4071C214.611 74.4553 216.578 75.2134 220.973 76.9074L220.976 76.9086C221.26 77.018 221.554 77.1313 221.858 77.2494C224.726 78.3627 225.408 79.2639 225.987 80.6805Z" fill="#EBD9A0"/>
<path d="M232.977 61.6232L227.826 75.6653C227.131 74.5504 225.427 72.8782 222.973 73.3546C219.628 74.0037 219.628 72.0563 219.628 68.8105C219.628 66.8493 218.611 65.8361 217.682 64.9117C217.074 64.3062 216.504 63.7389 216.283 62.9681C215.855 61.4708 217.074 61.1247 219.434 60.4547C220.143 60.2532 220.956 60.0225 221.858 59.7224C223.768 59.0866 223.942 59.696 224.079 60.1788C224.222 60.6819 224.326 61.0476 226.317 59.7224C229.407 57.6662 232.024 60.1045 232.977 61.6232Z" fill="#EBD9A0"/>
<path d="M212.939 60.3715C212.382 60.3715 211.824 60.3715 211.267 61.6698C210.709 62.9681 210.709 63.6173 211.267 64.2664C211.545 64.591 211.267 64.9156 210.988 65.2402C210.709 65.5647 210.431 65.8893 210.709 66.2139C211.267 66.863 212.382 68.1613 213.496 67.5122C213.766 67.3553 214.035 67.2363 214.281 67.1278C215.053 66.7872 215.591 66.5492 215.169 65.5647C214.611 64.2664 214.611 63.6173 215.169 63.6173C215.726 63.6173 214.611 61.0207 214.054 61.0207C213.608 61.0207 213.125 60.5879 212.939 60.3715Z" fill="#EBD9A0"/>
<path d="M209.594 92.8291C209.148 91.7905 209.409 91.9636 209.594 92.18H212.382C212.939 92.18 212.939 92.8291 212.382 93.4783C212.037 93.8795 212.331 94.0327 212.738 94.2445C212.989 94.3754 213.283 94.5286 213.496 94.7766C213.868 95.2094 213.496 95.3536 212.877 95.594C212.567 95.7143 212.196 95.8585 211.824 96.0749C210.709 96.7241 210.709 95.4257 211.267 94.1274C211.545 93.4783 211.267 93.4783 210.849 93.4783C210.431 93.4783 209.873 93.4783 209.594 92.8291Z" fill="#EBD9A0"/>
<path d="M190.084 107.824L172.804 89.6481C178.378 77.5305 190.53 50.4392 194.544 39.0142C197.145 43.28 203.463 52.1827 207.922 53.2955L190.084 107.824Z" fill="#F8F0D7"/>
<path d="M175.303 84.1762C175.554 84.418 175.852 84.3107 176.32 84.1421C176.791 83.9723 177.435 83.7404 178.377 83.7404C179.863 83.7404 180.359 84.0289 181.35 84.6059C181.845 84.8944 182.465 85.2551 183.394 85.6879C185.057 86.4627 185.529 85.8503 186.114 85.0925C186.508 84.5805 186.954 84.0021 187.853 83.7404C189.494 83.2627 189.626 83.1365 190.469 82.3271C190.772 82.0366 191.167 81.6581 191.755 81.1438C192.924 80.1231 192.868 79.994 192.63 79.4481C192.414 78.9525 192.048 78.1131 192.313 75.9506C192.635 73.327 192.956 73.3001 193.6 73.2463C194.071 73.2069 194.715 73.1531 195.657 72.0556C197.012 70.4779 196.721 70.3382 195.783 69.8889C195.177 69.5988 194.303 69.1796 193.428 68.1607C191.198 65.5641 190.641 64.266 189.526 61.6693C188.869 60.1403 187.166 60.1588 185.793 60.534C182.217 68.8168 178.331 77.5079 175.303 84.1762Z" fill="#F4E5B4"/>
<path d="M198.086 44.2441C198.019 44.2092 197.952 44.1752 197.887 44.1421C197.144 44.1421 195.992 44.9211 197.33 48.037C197.897 49.3585 198.401 50.0821 198.752 50.5883C199.438 51.574 199.55 51.7348 198.445 53.8794C197.968 54.8051 197.491 55.4669 197.117 55.985C196.181 57.2835 195.895 57.6805 197.887 59.0726C198.757 59.6802 199.355 60.2877 199.817 60.7573C200.837 61.793 201.196 62.1575 202.347 60.3709C202.948 59.4371 203.405 59.0071 203.744 58.6882C204.348 58.1204 204.577 57.9054 204.577 55.8268C204.577 53.9608 204.577 53.1676 204.788 52.4603C204.855 52.2373 204.943 52.0229 205.059 51.7861C202.703 50.0186 200.183 47.0667 198.086 44.2441Z" fill="#F4E5B4"/>
<path fill-rule="evenodd" clip-rule="evenodd" d="M188.969 70.1083C189.277 70.1083 189.527 69.8177 189.527 69.4592C189.527 69.1007 189.277 68.81 188.969 68.81C188.661 68.81 188.412 69.1007 188.412 69.4592C188.412 69.8177 188.661 70.1083 188.969 70.1083ZM188.969 71.4066C189.893 71.4066 190.641 70.5347 190.641 69.4592C190.641 68.3836 189.893 67.5117 188.969 67.5117C188.046 67.5117 187.297 68.3836 187.297 69.4592C187.297 70.5347 188.046 71.4066 188.969 71.4066Z" fill="#CD3434"/>
<path fill-rule="evenodd" clip-rule="evenodd" d="M223.531 110.356C223.839 110.356 224.088 110.065 224.088 109.707C224.088 109.348 223.839 109.058 223.531 109.058C223.223 109.058 222.973 109.348 222.973 109.707C222.973 110.065 223.223 110.356 223.531 110.356ZM223.531 111.654C224.454 111.654 225.203 110.783 225.203 109.707C225.203 108.631 224.454 107.76 223.531 107.76C222.607 107.76 221.858 108.631 221.858 109.707C221.858 110.783 222.607 111.654 223.531 111.654Z" fill="#CD3434"/>
<path fill-rule="evenodd" clip-rule="evenodd" d="M217.956 88.2841C218.263 88.2841 218.513 87.9935 218.513 87.635C218.513 87.2764 218.263 86.9858 217.956 86.9858C217.648 86.9858 217.398 87.2764 217.398 87.635C217.398 87.9935 217.648 88.2841 217.956 88.2841ZM217.956 89.5824C218.879 89.5824 219.628 88.7105 219.628 87.635C219.628 86.5594 218.879 85.6875 217.956 85.6875C217.032 85.6875 216.283 86.5594 216.283 87.635C216.283 88.7105 217.032 89.5824 217.956 89.5824Z" fill="#CD3434"/>
<path d="M180.609 74.8968C174.477 71.0019 173.362 82.0375 172.805 83.3358L175.592 85.1042C176.335 84.6714 176.149 77.9635 181.166 80.5601C182.42 81.2093 186.741 78.7917 180.609 74.8968Z" fill="#FA7D5D"/>
<path d="M171.131 76.0167C168.901 70.8234 170.76 66.7121 172.246 65.6302L161.097 59.7878C161.543 63.4231 158.682 68.2268 157.195 70.1743C157.195 75.8868 166.672 76.6658 171.131 76.0167Z" fill="#FA7D5D"/>
<path d="M171.689 76.0157C167.23 76.0157 160.169 72.1208 157.196 70.1733C145.676 103.28 127.094 170.402 144.932 174.038C162.77 177.673 173.919 174.254 177.263 172.09C176.892 167.979 176.037 154.044 175.591 131.194C175.145 108.344 172.804 84.8875 171.689 76.0157Z" fill="#C4DFF6"/>
<path d="M163.013 73.4194C165.945 74.8183 169.217 76.0156 171.689 76.0156C172.804 84.8873 175.145 108.343 175.591 131.194C175.712 137.379 175.863 142.91 176.026 147.771C173.18 145.593 169.87 139.282 166.115 126.65C154.075 86.1428 158.868 74.285 162.77 73.4194H163.013Z" fill="#ABD1F1"/>
<path d="M246.74 95.8927C243.884 95.8922 241.205 104.88 239.696 107.548L244.335 105.42C247.555 99.8874 248.856 95.8931 246.74 95.8927Z" fill="#FF8C6E"/>
<path d="M177.264 142.879C171.913 142.879 168.345 125.568 167.23 116.913L177.264 101.982L182.839 124.703L187.855 122.755C196.774 119.12 228.176 112.369 238.582 109.773C239.139 104.58 249.173 101.983 251.403 95.4915C253.266 90.067 250.845 108.474 245.829 115.615C241.815 121.327 241.741 119.51 238.582 118.861C225.761 127.3 183.953 142.879 177.264 142.879Z" fill="#FF8C6E"/>
<path d="M159.522 91.6772C160.184 98.4124 164.767 117.366 166.975 126.001C171.613 121.338 181.898 121.025 185.625 121.457C183.395 112.369 179.646 83.1286 172.358 77.4295C163.248 70.3057 158.694 83.2581 159.522 91.6772Z" fill="#D6E7F6"/>
<path d="M179.194 121.486C178.82 121.522 178.441 121.563 178.058 121.611C176.299 115.16 174.458 108.364 172.746 101.964C170.92 95.1392 169.24 88.762 167.96 83.7329C167.088 80.305 166.396 77.4828 165.973 75.571C166.328 75.4657 166.698 75.3996 167.081 75.3765C167.496 77.238 168.169 79.9855 169.029 83.364C170.306 88.3846 171.985 94.7552 173.81 101.578C175.545 108.065 177.413 114.958 179.194 121.486Z" fill="#9DC9EE"/>
<path d="M163.226 77.3897L174.416 122.276C174.051 122.366 173.688 122.464 173.328 122.569L162.347 78.5204C162.621 78.1111 162.914 77.7323 163.226 77.3897Z" fill="#9DC9EE"/>
<path d="M166.198 74.7826C168.157 75.5148 170.091 76.0155 171.69 76.0155C171.759 76.565 171.832 77.1705 171.91 77.8283C166.728 75.3649 160.095 78.6285 152.737 95.4912C149.099 103.826 146.617 108.569 144.991 110.777C147.921 99.2486 151.335 87.8307 154.499 78.1688C157.61 75.8937 161.487 74.4721 166.198 74.7826Z" fill="#A71814"/>
<path fill-rule="evenodd" clip-rule="evenodd" d="M133.906 41.1141C132.326 43.3586 131.334 46.198 130.93 48.0826L126.604 46.823C127.128 44.3799 128.366 40.7927 130.456 37.8224C132.569 34.8204 135.759 32.1938 140.064 32.528C142.412 32.7103 144.202 33.9756 145.412 35.8864C146.556 37.6944 147.106 39.949 147.352 42.1138C147.844 46.4441 147.225 51.3745 146.538 54.5742L142.212 53.3147C142.825 50.4556 143.321 46.2329 142.931 42.795C142.735 41.0756 142.344 39.7923 141.822 38.9685C141.366 38.2476 140.764 37.7871 139.767 37.7098C137.383 37.5247 135.463 38.9012 133.906 41.1141Z" fill="#A71814"/>
<path d="M115.945 40.9624C106.58 40.9624 96.4347 79.046 92.5326 98.0878C88.259 110.422 79.6002 138.335 79.1542 151.318C78.5968 167.547 138.8 193.513 147.718 188.969C156.637 184.425 160.539 76.0166 157.195 64.3319C153.85 52.6471 127.651 40.9624 115.945 40.9624Z" fill="#D13734"/>
<path d="M83.0289 121.713L123.202 150.23L120.05 175.014L80.3143 147.132L79.2555 142.576C77.5692 135.319 78.9724 127.561 83.0289 121.713Z" fill="#A71814"/>
<path d="M128.613 160.598C128.803 168.212 124.713 175.191 120.405 175.337C117.06 174.038 113.201 168.739 113.011 161.125C112.822 153.511 116.16 147.221 120.469 147.075C124.777 146.93 128.423 152.984 128.613 160.598Z" fill="#781A18"/>
<path d="M112.458 58.4888L116.448 59.8913L100.982 119.551L96.9927 118.148L112.458 58.4888Z" fill="#A71814"/>
<path d="M133.641 71.4729L137.63 72.8754L122.165 132.535L118.175 131.132L133.641 71.4729Z" fill="#A71814"/>
<path d="M86.958 100.035C89.1877 95.8805 94.9478 97.0057 97.5492 98.0876C104.238 101.55 119.624 109.772 127.651 114.965C137.685 121.457 133.783 126.001 132.11 134.44C130.438 142.879 129.881 153.265 120.404 153.265C110.928 153.265 84.1708 126.65 81.3836 122.755C78.5965 118.86 84.1708 105.228 86.958 100.035Z" fill="#C22420"/>
<path d="M176.148 66.9275C166.337 70.0434 157.939 59.5704 154.966 53.9444L166.672 24.7325L195.658 20.1885L194.544 34.4698C193.986 37.4992 192.871 43.558 190.642 46.1546C187.854 49.4003 192.314 51.997 191.199 54.5936C190.451 56.3354 189.206 55.2427 187.297 57.8393C185.96 59.657 184.456 60.9222 183.83 61.7078C183.762 61.8109 183.691 61.9134 183.618 62.0153C182.216 63.9788 179.92 65.7295 176.148 66.9275Z" fill="#FF8C6E"/>
<path d="M151.622 29.9279C148.054 47.0656 155.337 56.327 158.31 57.8417C173.361 65.5098 170.574 32.4101 180.608 34.4721C188.189 36.0301 197.888 36.4196 203.462 35.1213C199.003 35.6406 197.517 31.4428 197.331 29.9281C204.02 31.486 208.665 25.8168 210.152 22.7874C203.462 25.384 198.074 20.8399 196.216 18.2433L205.135 14.3484C205.135 14.3484 200.675 15.6452 196.216 13.6985C188.908 10.5084 182.837 5.90866 176.148 5.25951C169.459 4.61036 156.081 8.50591 151.622 29.9279Z" fill="#32327A"/>
<path d="M173.171 36.6921C176.036 37.3996 176.081 41.2604 175.298 42.9918C175.19 47.0074 173.366 53.6016 170.51 48.7386C166.94 42.6598 169.591 35.8077 173.171 36.6921Z" fill="#FF8C6E"/>
<path d="M182.838 52.6466C182.838 55.8732 180.592 58.4889 177.822 58.4889C175.051 58.4889 172.805 55.8732 172.805 52.6466C172.805 49.4199 175.051 46.8042 177.822 46.8042C180.592 46.8042 182.838 49.4199 182.838 52.6466Z" fill="#FF6344"/>
<path d="M186.338 46.3844C186.062 47.8937 185.167 48.9508 184.338 48.7456C183.509 48.5403 183.061 47.1505 183.337 45.6412C183.612 44.1319 184.508 43.0748 185.336 43.2801C186.165 43.4853 186.613 44.8752 186.338 46.3844Z" fill="#090F39"/>
<path fill-rule="evenodd" clip-rule="evenodd" d="M184.593 39.2576C183.683 39.2811 182.803 39.7078 181.994 40.231C181.725 40.4051 181.386 40.2922 181.236 39.9788C181.087 39.6654 181.184 39.2702 181.453 39.0961C182.316 38.5373 183.387 37.9902 184.568 37.9596C185.777 37.9283 187.035 38.4397 188.249 39.8535C188.467 40.1071 188.467 40.5181 188.249 40.7716C188.032 41.0251 187.679 41.0251 187.461 40.7716C186.446 39.5889 185.474 39.2347 184.593 39.2576Z" fill="#2A2B3D"/>
<path fill-rule="evenodd" clip-rule="evenodd" d="M178.736 56.7266C178.956 56.5983 179.224 56.7023 179.334 56.9588C180.124 58.7985 180.985 59.2895 181.626 59.3513C182.309 59.4171 182.901 59.0135 183.14 58.7567C183.321 58.5623 183.603 58.5757 183.77 58.7866C183.937 58.9975 183.925 59.326 183.744 59.5204C183.379 59.9127 182.553 60.4828 181.552 60.3864C180.509 60.2859 179.419 59.4786 178.536 57.4233C178.426 57.1668 178.516 56.8548 178.736 56.7266Z" fill="#2A2B3D"/>
</svg>
