<svg width="251" height="312" viewBox="0 0 251 312" fill="none" xmlns="http://www.w3.org/2000/svg">
<path d="M181.448 1.29243C169.536 2.27794 166.289 11.2844 166.155 15.6645C146.516 -5.35973 133.826 10.1894 129.935 20.592C122.852 20.592 121.618 27.4359 121.886 30.8578C116.655 32.9109 84.8605 35.7854 111.825 42.3555C146.318 50.7601 185.473 47.283 217.266 47.6937C249.059 48.1043 252.279 37.4279 250.669 32.5003C249.059 27.5727 231.352 35.7854 232.559 24.6983C233.525 15.8287 216.059 18.2651 207.205 20.592C208.68 18.9495 210.746 15.0896 207.205 12.79C203.663 10.4904 198.753 13.7482 196.741 15.6645C196.607 10.4632 193.361 0.306913 181.448 1.29243Z" fill="#ECF2FF"/>
<path d="M44.8587 121.075C52.5419 121.719 54.6357 127.608 54.7222 130.472C67.3892 116.725 75.574 126.892 78.083 133.694C82.6513 133.694 83.4474 138.169 83.2745 140.406C86.6488 141.749 107.155 143.628 89.7638 147.924C67.5166 153.419 42.2631 151.146 21.7574 151.414C1.25168 151.683 -0.824829 144.702 0.213432 141.48C1.25169 138.258 12.6726 143.628 11.8939 136.379C11.2709 130.579 22.5361 132.172 28.2465 133.694C27.2948 132.62 25.9623 130.096 28.2465 128.593C30.5307 127.089 33.6974 129.219 34.9952 130.472C35.0818 127.071 37.1756 120.431 44.8587 121.075Z" fill="#ECF2FF"/>
<path d="M201.503 102.144C207.001 102.599 208.5 106.756 208.562 108.777C217.626 99.0739 223.483 106.25 225.279 111.052C228.548 111.052 229.117 114.21 228.994 115.79C231.408 116.737 246.082 118.064 233.637 121.096C217.717 124.975 199.646 123.371 184.972 123.56C170.298 123.75 168.812 118.822 169.555 116.548C170.298 114.274 178.471 118.064 177.914 112.947C177.468 108.853 185.529 109.978 189.616 111.052C188.935 110.294 187.981 108.512 189.616 107.451C191.25 106.389 193.516 107.893 194.445 108.777C194.507 106.377 196.005 101.689 201.503 102.144Z" fill="#ECF2FF"/>
<path d="M207.541 292.183C207.541 303.127 174.185 312 133.039 312C91.8927 312 58.5371 303.127 58.5371 292.183C58.5371 281.238 91.8927 272.365 133.039 272.365C174.185 272.365 207.541 281.238 207.541 292.183Z" fill="#ECF2FF"/>
<path d="M87.0035 13.5444L88.5326 33.5596L78.4013 29.1132L83.3591 13.59L87.0035 13.5444Z" fill="#9EB7EA"/>
<path d="M93.0628 35.8988C94.1426 36.5386 95.4345 36.9579 95.0242 38.4874C94.8257 39.7965 87.1831 40.189 86.2558 40.3392C78.7604 41.0862 73.3918 40.2822 71.4583 40.0887C67.3475 39.6771 62.4292 38.2417 59.846 37.4029C56.7653 37.9641 53.8408 37.2602 52.7636 36.8382C48.02 34.6472 38.403 30.1799 37.8843 29.838C37.3655 29.496 36.6536 28.5468 36.3625 28.1149L25.1593 23.6819C13.2945 17.7328 14.5465 14.8863 15.1685 13.1364C15.6661 11.7365 17.0768 11.3704 17.72 11.3623C17.6397 10.6375 18.3346 9.00284 21.7562 8.26322C25.1779 7.52359 29.9097 8.74198 31.8479 9.44362C44.2686 14.0791 69.455 23.5201 70.8355 24.1997C72.5611 25.0492 91.6165 35.0418 93.0628 35.8988Z" fill="#DBE4F4"/>
<path d="M87.627 34.0428L103.849 27.9603C104.418 27.7355 105.812 27.2389 106.839 27.0519C108.123 26.8181 110.277 27.6622 109.854 28.103C109.515 28.4557 98.4855 33.6167 93.013 36.1531C91.8687 36.0948 89.1895 35.5912 87.627 34.0428Z" fill="#7393A8"/>
<path d="M79.5889 40.4405C78.3356 40.448 77.0672 40.4556 75.968 40.4694C74.6199 41.2847 72.13 43.2955 72.3079 43.8159C72.5302 44.4665 74.2478 44.6627 75.3171 44.4316C76.1725 44.2467 82.7002 41.6192 85.4007 40.3514C84.4542 40.4114 82.0509 40.4258 79.5889 40.4405Z" fill="#7393A8"/>
<path d="M108.136 27.0924C107.687 27.0086 107.224 26.9818 106.839 27.0519C105.812 27.2389 104.418 27.7355 103.849 27.9603L87.627 34.0428C87.8408 34.2547 88.0755 34.447 88.3244 34.6213C94.3915 32.1618 103.812 28.6674 108.136 27.0924Z" fill="#E8E8E8"/>
<path d="M72.7279 44.2223C72.5155 44.1155 72.364 43.9802 72.3079 43.8159C72.13 43.2955 74.6199 41.2847 75.968 40.4694C76.2869 40.4654 76.6201 40.4619 76.963 40.4588C75.6488 41.483 73.4304 43.3046 72.7279 44.2223Z" fill="#E8E8E8"/>
<path d="M108.302 1.73642C108.872 1.58411 110.183 1.27737 110.869 1.26879C110.935 1.26797 111.016 1.26633 111.108 1.26446C112.215 1.24198 114.987 1.18567 113.881 2.10219C109.857 5.43724 104.233 8.22593 97.4 11.6137C88.3775 16.0873 77.2481 21.6055 64.9142 30.806L52.1836 23.9973L61.3465 19.3096L73.7251 14.5818L108.302 1.73642Z" fill="#8EADCA"/>
<path d="M108.302 1.73642C108.872 1.58411 110.183 1.27737 110.869 1.26879C110.935 1.26797 111.016 1.26633 111.108 1.26446C112.215 1.24198 114.987 1.18567 113.881 2.10219C109.857 5.43724 104.233 8.22593 97.4 11.6137C88.3775 16.0873 77.2481 21.6055 64.9142 30.806L52.1836 23.9973L61.3465 19.3096L73.7251 14.5818L108.302 1.73642Z" fill="url(#paint0_radial_687_381)"/>
<path d="M38.0982 29.617L14.3146 48.6421C14.0323 48.9359 13.5979 49.6527 14.1187 50.1689C14.7698 50.814 15.2038 51.2441 17.3344 50.1287C19.465 49.0132 44.6405 38.6813 45.9215 38.2297C46.9463 37.8685 50.9078 36.8608 52.7605 36.4021L38.0982 29.617Z" fill="#8EADCA"/>
<path d="M38.0982 29.617L14.3146 48.6421C14.0323 48.9359 13.5979 49.6527 14.1187 50.1689C14.7698 50.814 15.2038 51.2441 17.3344 50.1287C19.465 49.0132 44.6405 38.6813 45.9215 38.2297C46.9463 37.8685 50.9078 36.8608 52.7605 36.4021L38.0982 29.617Z" fill="url(#paint1_radial_687_381)"/>
<path d="M52.2204 24.017L110.708 1.27539C109.994 1.32178 108.83 1.59537 108.302 1.73644L73.7251 14.5818L61.3464 19.3097L52.1835 23.9973L52.2204 24.017Z" fill="#E8E8E8"/>
<path d="M13.8752 49.5905L38.8071 29.9451L38.0982 29.617L14.3146 48.6421C14.1294 48.8349 13.8787 49.2098 13.8752 49.5905Z" fill="#E8E8E8"/>
<path d="M21.9828 9.13244C20.7823 9.14745 18.9153 9.60632 18.1319 9.83388L16.6523 11.5945L21.9986 10.4388L21.9828 9.13244Z" fill="#052652"/>
<path d="M22.6418 10.4308L22.6259 9.1244L23.6978 9.111L24.7856 10.404L22.6418 10.4308Z" fill="#052652"/>
<path d="M25.6431 10.3933L24.5553 9.10027C26.4848 9.07608 26.925 10.0143 27.3608 10.5895L25.6431 10.3933Z" fill="#052652"/>
<path d="M93.7103 103.637C95.0574 98.8787 94.5757 93.9042 94.0144 92.2047L120.091 88.0586C121.401 91.7408 125.816 99.1053 133.001 99.1053C141.981 99.1053 145.068 103.637 146.752 109.586C148.436 115.534 154.33 108.736 159.381 120.632C164.433 132.529 151.523 135.361 146.752 134.228C141.981 133.095 140.578 144.992 132.159 138.194C123.739 131.396 121.494 137.061 114.197 138.194C106.901 139.327 105.217 116.1 99.6039 114.684C93.991 113.268 92.0264 109.586 93.7103 103.637Z" fill="#32327A"/>
<path d="M125.99 178.893C125.272 180.813 137.75 222.044 138.195 225.968L141.125 225.968C140.474 222.478 127.972 181.989 128.956 180.841C130.186 179.406 139.195 179.131 140.407 180.034C141.619 180.938 149.163 204.926 154.798 221.339L156.426 221.339C155.911 217.69 143.765 180.211 141.777 178.05C139.291 175.349 126.889 176.492 125.99 178.893Z" fill="#C4C4C4"/>
<path d="M156.986 290.287C156.986 293.024 154.802 295.242 152.108 295.242C149.413 295.242 147.229 293.024 147.229 290.287C147.229 287.551 149.413 285.333 152.108 285.333C154.802 285.333 156.986 287.551 156.986 290.287Z" fill="#0B1867"/>
<path d="M156.986 290.287C156.986 293.024 154.802 295.242 152.108 295.242C149.413 295.242 147.229 293.024 147.229 290.287C147.229 287.551 149.413 285.333 152.108 285.333C154.802 285.333 156.986 287.551 156.986 290.287Z" fill="#0B1867"/>
<path d="M189.802 281.731C189.802 284.219 187.618 286.235 184.924 286.235C182.23 286.235 180.046 284.219 180.046 281.731C180.046 279.244 182.23 277.228 184.924 277.228C187.618 277.228 189.802 279.244 189.802 281.731Z" fill="#0B1867"/>
<path d="M189.802 281.731C189.802 284.219 187.618 286.235 184.924 286.235C182.23 286.235 180.046 284.219 180.046 281.731C180.046 279.244 182.23 277.228 184.924 277.228C187.618 277.228 189.802 279.244 189.802 281.731Z" fill="#0B1867"/>
<path d="M145.456 288.936C145.456 291.423 143.47 293.44 141.021 293.44C138.572 293.44 136.586 291.423 136.586 288.936C136.586 286.448 138.572 284.432 141.021 284.432C143.47 284.432 145.456 286.448 145.456 288.936Z" fill="#0B1867"/>
<path d="M145.456 288.936C145.456 291.423 143.47 293.44 141.021 293.44C138.572 293.44 136.586 291.423 136.586 288.936C136.586 286.448 138.572 284.432 141.021 284.432C143.47 284.432 145.456 286.448 145.456 288.936Z" fill="#0B1867"/>
<path d="M115.764 213.13C114.835 209.201 117.694 205.314 121.803 204.919L155.124 201.717C158.315 201.411 161.245 203.347 162.136 206.351L182.37 274.559C183.476 278.289 181.06 282.206 177.157 283.01L140.748 290.508C137.188 291.241 133.727 289.089 132.91 285.634L115.764 213.13Z" fill="#C22420"/>
<path d="M125.334 211.986C124.404 208.063 127.121 204.216 131.079 203.853L163.057 200.918C166.202 200.63 169.098 202.675 169.926 205.771L188.137 273.868C189.131 277.587 186.797 281.378 183.07 282.098L149.847 288.514C146.435 289.173 143.114 286.995 142.301 283.565L125.334 211.986Z" fill="#D13734"/>
<path d="M161.712 210.96C161.464 209.893 162.113 208.825 163.163 208.572C164.213 208.32 165.265 208.98 165.514 210.046L179.907 271.822C180.155 272.888 179.506 273.957 178.456 274.209C177.406 274.461 176.354 273.801 176.105 272.735L161.712 210.96Z" fill="#C22420"/>
<path d="M131.483 214.977C131.235 213.911 131.884 212.842 132.934 212.589C133.984 212.337 135.036 212.997 135.285 214.063L149.678 275.839C149.926 276.905 149.277 277.974 148.227 278.226C147.177 278.478 146.125 277.819 145.876 276.752L131.483 214.977Z" fill="#C22420"/>
<path d="M155.072 209.233C154.022 209.486 153.372 210.555 153.621 211.621L168.014 273.396C168.262 274.463 169.315 275.122 170.365 274.87C171.414 274.618 172.064 273.549 171.816 272.483L157.422 210.707C157.174 209.641 156.121 208.981 155.072 209.233Z" fill="#C22420"/>
<path d="M146.459 212.282C146.21 211.216 146.86 210.147 147.91 209.895C148.959 209.642 150.012 210.302 150.26 211.368L164.653 273.144C164.902 274.21 164.252 275.279 163.202 275.531C162.153 275.784 161.1 275.124 160.852 274.058L146.459 212.282Z" fill="#C22420"/>
<path d="M140.097 211.217C139.047 211.47 138.398 212.538 138.646 213.605L153.039 275.38C153.288 276.446 154.34 277.106 155.39 276.854C156.44 276.602 157.089 275.533 156.841 274.467L142.448 212.691C142.199 211.625 141.147 210.965 140.097 211.217Z" fill="#C22420"/>
<path d="M138.454 84.9542C126.962 76.2401 109.988 81.0753 102.938 84.5822C99.584 87.1215 95.786 90.7715 107.425 85.0572C121.973 77.9144 133.121 85.6074 142.317 91.5051C149.673 96.2233 161.416 91.9921 166.369 89.2867C164.222 88.2546 165.839 84.6242 166.916 82.9381C162.217 87.241 149.946 93.6684 138.454 84.9542Z" fill="#D13734"/>
<path d="M146.374 101.025C141.796 87.2213 119.453 79.914 111.689 78.729C107.509 78.8819 102.341 79.6923 115.115 81.7101C131.082 84.2323 141.416 93.2553 143.207 104.15C145.277 116.737 161.804 126.729 167.392 127.362C166.204 125.274 165.391 121.832 167.22 121.066C160.946 121.894 150.951 114.829 146.374 101.025Z" fill="#B92623"/>
<path d="M107.713 68.4838C104.637 68.061 102.16 69.4111 102.129 71.6034L107.405 75.3389L123.864 84.4143C124.47 82.6058 125.407 78.3481 124.302 75.785C122.922 72.5812 111.559 69.0123 107.713 68.4838Z" fill="#F58926"/>
<path d="M124.688 80.9366C122.038 78.6225 110.877 72.9945 104.806 70.0781C104.701 70.7126 104.653 71.3188 104.647 71.8177L105.703 73.1834L117.512 81.0026L123.884 84.541C124.158 83.7164 124.5 82.3856 124.688 80.9366Z" fill="#E34A47"/>
<path d="M74.8014 72.7075C72.1344 80.6924 87.9512 88.0119 96.193 90.6736C104.527 95.0463 123.918 103.507 134.809 102.366C148.421 100.94 147.032 89.5329 135.364 87.5367C123.696 85.5405 114.528 75.8444 106.472 70.1409C98.4152 64.4374 78.1352 62.7264 74.8014 72.7075Z" fill="#FFA502"/>
<path d="M102.013 273.721L85.1453 178.231L96.2478 170.027L109.979 272.684L102.013 273.721Z" fill="#FA7D5D"/>
<path d="M109.979 272.684L102.013 273.721C102.013 274.6 100.885 275.502 97.6987 277.349C94.5124 279.196 97.8093 282.077 99.6901 282.626C102.247 280.757 108.947 274.531 109.979 272.684Z" fill="#FA7D5D"/>
<path d="M109.255 272.719C108.231 275.061 102.109 278.357 99.3359 279.875L100.296 284.429C102.962 283.453 108.679 280.851 110.214 278.249C111.75 275.646 110.214 273.369 109.255 272.719Z" fill="#19194D"/>
<path d="M91.085 278.934C94.9007 275.244 96.7025 212.599 97.1265 181.738L111.753 182.727L100.942 277.287C101.26 277.397 102.023 278.341 102.532 281.241C103.168 284.865 101.26 286.842 98.7161 287.171C96.1724 287.501 90.0612 297.715 85.6096 300.021C81.158 302.327 74.4807 297.715 78.2964 294.42C82.112 291.125 86.3154 283.547 91.085 278.934Z" fill="#FF8C6E"/>
<path d="M101.665 278.217C101.959 278.829 102.277 279.79 102.532 281.241C103.168 284.865 101.26 286.842 98.7161 287.172C97.4789 287.332 95.3977 289.831 93.074 292.62C90.6202 295.566 87.896 298.837 85.6096 300.021C81.158 302.328 74.4807 297.715 78.2964 294.42C79.9516 292.991 81.6798 290.756 83.4956 288.306C84.2075 289.215 85.4597 290.776 86.8829 290.307C88.7844 289.679 98.3135 283.613 101.665 278.217Z" fill="#32327A"/>
<path d="M84.8734 183.595C81.0846 166.094 85.1925 157.668 89.1655 155.496L104.498 157.151L95.1487 185.321L84.8734 183.595Z" fill="#C4DFF6"/>
<path d="M112.28 187.343L95.1481 185.322L97.9403 166.889C93.1243 165.621 89.0268 162.411 86.596 158.002L86.4923 157.814C87.6333 156.776 104.401 155.598 108.966 156.802C113.532 158.006 116.739 164.282 115.767 170.062C114.988 174.686 112.28 187.343 112.28 187.343Z" fill="#D6E7F6"/>
<path d="M124.922 137.342C119.965 120.165 115.777 119.504 114.223 118.842L111.176 126.116L129.732 170.215C128.887 172.327 131.278 178.361 132.15 179.705C129.85 179.609 130.07 180.857 130.905 181.994C131.74 183.13 136.389 182.154 138.311 181.546C140.234 180.938 139.982 178.794 139.084 175.865C138.366 173.522 136.054 170.919 134.026 170.215C131.926 160.719 126.751 141.131 124.922 137.342Z" fill="#FF8C6E"/>
<path d="M100.564 113.758C102.747 112.151 102.565 109.263 102.201 108.02C106.659 104.577 114.591 99.6996 110.661 107.733C106.731 115.767 112.117 118.54 115.301 118.923C113.554 121.677 107.114 150.77 110.115 157.368C104.002 161.729 92.104 159.951 86.9189 158.516L88.1712 153.908C89.1463 150.32 89.4463 146.566 89.0544 142.858L88.8292 140.728C88.1925 139.58 86.9189 136.137 86.9189 131.547C87.3556 127.415 93.2083 118.314 96.1192 114.202C97.2108 114.489 98.3808 115.365 100.564 113.758Z" fill="#FA7D5D"/>
<path d="M112.808 118.203C113.66 118.604 114.543 118.83 115.301 118.921C113.554 121.676 107.114 150.769 110.115 157.367C104.002 161.728 92.104 159.95 86.9189 158.515L88.1712 153.907C89.1463 150.319 89.4463 146.565 89.0544 142.857L88.8292 140.727C88.1925 139.579 86.9189 136.136 86.9189 131.546C87.3556 127.414 93.2083 118.256 96.1192 114.144C96.4096 114.205 96.6788 114.295 96.9437 114.384C97.0769 114.429 97.209 114.473 97.3421 114.513V114.657C95.8387 117.599 94.7805 121.703 95.006 123.07C95.2879 124.778 106 126.487 108.255 125.063C109.877 124.039 111.761 121.126 112.808 118.203Z" fill="#213ACF"/>
<path d="M88.848 140.905L88.8292 140.727C88.1925 139.579 86.9189 136.136 86.9189 131.546C86.9352 131.392 86.9589 131.232 86.9896 131.065C91.0758 135.668 100 142.57 107.318 137.798C106.584 140.203 101.858 144.088 88.848 140.905Z" fill="#2034A6"/>
<path d="M78.6443 107.538C83.2521 108.963 92.2447 112.553 96.2316 114.273L90.8141 123.188C83.6292 120.294 67.9331 113.272 69.2595 107.221C70.586 101.17 76.6288 91.066 78.6553 86.4904C77.4578 85.1831 76.4999 82.5684 78.9317 79.2068C81.3635 75.8451 85.0111 77.4086 86.9455 79.451C88.3497 78.5303 89.3784 79.5172 88.327 82.2883C87.2216 85.2017 84.3661 87.6109 83.0765 88.4513L77.8767 106.111C77.698 106.718 78.0468 107.353 78.6443 107.538Z" fill="#FF8C6E"/>
<path d="M97.5623 100.157C97.5621 101.367 97.5764 102.386 97.6084 103.102C97.6093 103.122 97.6102 103.142 97.6112 103.162C97.8568 107.976 101.703 110.673 106.875 110.673C111.962 110.673 116.049 109.333 118.044 102.233C118.086 102.084 118.127 101.932 118.167 101.779C118.63 99.9962 118.849 98.2634 118.848 96.6397C118.848 91.4354 116.602 87.3526 112.973 86.3442C111.436 85.917 110.044 85.0884 108.638 84.2516C105.691 82.4974 102.682 80.7066 98.1405 82.498C97.8464 85.7343 97.563 94.8123 97.5623 100.157Z" fill="#FF8C6E"/>
<path d="M97.5745 98.0643C97.5518 100.188 97.5593 102.001 97.6084 103.101C97.6252 103.478 97.6629 103.847 97.7207 104.207C97.9558 104.25 98.1995 104.273 98.4492 104.273C100.409 104.273 101.997 102.862 101.997 101.121C101.997 99.3793 100.409 97.9678 98.4492 97.9678C98.1473 97.9678 97.8543 98.0013 97.5745 98.0643Z" fill="#FF6344"/>
<path d="M113.527 106.075C115.486 106.075 117.075 104.462 117.075 102.472C117.075 100.482 115.486 98.8686 113.527 98.8686C111.568 98.8686 109.979 100.482 109.979 102.472C109.979 104.462 111.568 106.075 113.527 106.075Z" fill="#FF6344"/>
<path d="M106.284 89.4783C102.142 89.0354 101.299 84.8651 101.395 82.8353C99.784 85.9353 98.614 89.2937 98.2304 90.5855L97.3674 103.871C96.7923 103.502 95.3544 100.771 94.2039 92.7997C92.7657 82.8353 99.669 79.237 110.024 80.0674C120.379 80.8977 125.844 93.9069 122.105 102.764C119.113 109.85 113.203 111.491 110.423 111.122C118.764 108.908 118.941 100.55 119.228 99.1659C119.459 98.0588 119.133 97.782 118.941 97.782C115.489 97.2284 116.064 93.0765 114.051 91.139C112.037 89.2015 111.462 90.0318 106.284 89.4783Z" fill="#32327A"/>
<path fill-rule="evenodd" clip-rule="evenodd" d="M103.551 99.9318C103.807 99.7093 104.102 99.5336 104.368 99.4121L104.632 100.023C104.411 100.124 104.17 100.268 103.97 100.442C103.766 100.619 103.625 100.807 103.566 100.991C103.512 101.16 103.516 101.35 103.653 101.577C103.798 101.819 104.098 102.111 104.658 102.431L104.342 103.015C103.733 102.667 103.327 102.306 103.1 101.928C102.865 101.536 102.833 101.142 102.949 100.781C103.061 100.437 103.297 100.152 103.551 99.9318Z" fill="#E4542F"/>
<path fill-rule="evenodd" clip-rule="evenodd" d="M109.006 104.895C109.121 105.001 109.121 105.171 109.006 105.276C107.779 106.394 106.657 106.715 105.725 106.594C104.807 106.475 104.148 105.937 103.818 105.466C103.73 105.341 103.77 105.174 103.907 105.094C104.045 105.014 104.228 105.05 104.316 105.176C104.577 105.547 105.1 105.969 105.808 106.061C106.503 106.151 107.449 105.933 108.588 104.895C108.703 104.79 108.891 104.79 109.006 104.895Z" fill="black"/>
<path fill-rule="evenodd" clip-rule="evenodd" d="M100.829 91.2655C100.115 91.5881 99.5988 92.1794 99.3819 92.5737C99.3067 92.7104 99.1366 92.7593 99.0019 92.6829C98.8673 92.6065 98.8192 92.4337 98.8944 92.297C99.1617 91.8111 99.7628 91.1263 100.603 90.7472C101.46 90.3601 102.554 90.2989 103.754 91.0604C103.885 91.1434 103.925 91.3184 103.843 91.4512C103.761 91.584 103.589 91.6244 103.458 91.5414C102.424 90.885 101.526 90.9508 100.829 91.2655Z" fill="black"/>
<path fill-rule="evenodd" clip-rule="evenodd" d="M112.345 92.4023C112.995 92.8445 113.403 93.5176 113.551 93.9444C113.602 94.0923 113.761 94.1701 113.907 94.1183C114.052 94.0665 114.129 93.9047 114.078 93.7569C113.896 93.231 113.42 92.4509 112.656 91.9311C111.876 91.4004 110.808 91.1504 109.497 91.6942C109.355 91.7535 109.286 91.919 109.344 92.064C109.403 92.209 109.566 92.2785 109.709 92.2193C110.838 91.7505 111.711 91.971 112.345 92.4023Z" fill="black"/>
<path d="M96.4601 94.7923C96.5036 94.2744 96.9524 93.8883 97.4626 93.9301L103.485 94.4229C103.996 94.4646 104.374 94.9183 104.33 95.4362L104.272 96.1301C104.087 98.3366 102.175 99.9812 100.002 99.8033C97.8282 99.6255 96.2165 97.6927 96.4018 95.4862L96.4601 94.7923Z" fill="#0B1867"/>
<path d="M106.482 96.2868C106.542 95.5696 107.164 95.0351 107.87 95.0929L113.182 95.5276C113.889 95.5854 114.413 96.2136 114.352 96.9307L114.324 97.2639C114.139 99.4704 112.227 101.115 110.054 100.937C107.88 100.759 106.269 98.8265 106.454 96.62L106.482 96.2868Z" fill="#0B1867"/>
<path fill-rule="evenodd" clip-rule="evenodd" d="M105.082 96.9098C104.405 96.8842 103.82 97.0288 103.562 97.1563L102.884 96.5628C103.378 96.3194 104.233 96.1347 105.147 96.1692C106.089 96.2048 107.121 96.4749 107.909 97.1652L107.006 97.6103C106.439 97.1137 105.73 96.9343 105.082 96.9098ZM118.849 97.4103L114.049 97.9666L113.853 97.2361L118.652 96.6798L118.849 97.4103Z" fill="#0B1867"/>
<defs>
<radialGradient id="paint0_radial_687_381" cx="0" cy="0" r="1" gradientUnits="userSpaceOnUse" gradientTransform="translate(51.2067 31.849) rotate(66.6707) scale(26.1828 54.8704)">
<stop stop-color="#0055A5"/>
<stop offset="1" stop-color="#8BAECC"/>
</radialGradient>
<radialGradient id="paint1_radial_687_381" cx="0" cy="0" r="1" gradientUnits="userSpaceOnUse" gradientTransform="translate(51.2067 31.849) rotate(66.6707) scale(26.1828 54.8704)">
<stop stop-color="#0055A5"/>
<stop offset="1" stop-color="#8BAECC"/>
</radialGradient>
</defs>
</svg>
