<svg width="61" height="20" viewBox="0 0 61 20" fill="none" xmlns="http://www.w3.org/2000/svg">
<g clip-path="url(#clip0_659_5073)">
<path d="M31.5477 6.31662C31.5129 9.06899 33.9931 10.605 35.8614 11.5182C37.7811 12.4553 38.4259 13.0561 38.4185 13.8939C38.4039 15.1764 36.8872 15.7423 35.4676 15.7644C32.9911 15.8029 31.5514 15.0937 30.4066 14.5572L29.5145 18.7446C30.663 19.2756 32.7897 19.7386 34.995 19.7588C40.1715 19.7588 43.5583 17.1957 43.5767 13.2214C43.5968 8.17787 36.6216 7.89859 36.6692 5.64414C36.6857 4.96064 37.336 4.23121 38.7611 4.04563C39.4663 3.95193 41.4134 3.88027 43.6206 4.90001L44.487 0.848616C43.3001 0.414997 41.7742 -0.000247955 39.8748 -0.000247955C35.0024 -0.000247955 31.5752 2.59779 31.5477 6.31662ZM52.8122 0.348852C51.867 0.348852 51.0702 0.901899 50.7149 1.75076L43.3202 19.4611H48.493L49.5224 16.6077H55.8437L56.4408 19.4611H61L57.0215 0.348852H52.8122ZM53.5357 5.51185L55.0286 12.6886H50.9402L53.5357 5.51185ZM25.2759 0.348852L21.1985 19.4611H26.1277L30.2033 0.348852H25.2759ZM17.9838 0.348852L12.8532 13.3574L10.7779 2.29646C10.5342 1.06175 9.57258 0.348852 8.50468 0.348852H0.11723L0 0.903736C1.72182 1.27856 3.6781 1.88305 4.86322 2.52981C5.58858 2.92484 5.79557 3.27026 6.03369 4.20916L9.96457 19.4611H15.174L23.1603 0.348852H17.9838Z" fill="url(#paint0_linear_659_5073)"/>
</g>
<defs>
<linearGradient id="paint0_linear_659_5073" x1="28.0443" y1="20.1552" x2="28.6179" y2="-0.137556" gradientUnits="userSpaceOnUse">
<stop stop-color="#222357"/>
<stop offset="1" stop-color="#254AA5"/>
</linearGradient>
<clipPath id="clip0_659_5073">
<rect width="61" height="20" fill="white"/>
</clipPath>
</defs>
</svg>
